<svg xmlns="http://www.w3.org/2000/svg" xmlns:xlink="http://www.w3.org/1999/xlink" viewBox="0 0 5000 2916"><defs><style>.cls-1{fill:url(#linear-gradient);}.cls-2{fill:url(#linear-gradient-2);}.cls-3{fill:url(#linear-gradient-3);}.cls-4{fill:none;clip-rule:evenodd;}.cls-5{fill:#fff;}.cls-6{clip-path:url(#clip-path);}.cls-7{fill:url(#linear-gradient-4);}.cls-8{fill:#102770;fill-rule:evenodd;}.cls-9{clip-path:url(#clip-path-2);}.cls-10{fill:url(#linear-gradient-5);}.cls-11{clip-path:url(#clip-path-3);}.cls-12{fill:url(#linear-gradient-6);}.cls-13{mask:url(#mask);}.cls-14{clip-path:url(#clip-path-4);}.cls-15{fill:url(#linear-gradient-7);}.cls-16{mask:url(#mask-2);}.cls-17{mask:url(#mask-3);}</style><linearGradient id="linear-gradient" x1="-3327.94" y1="3075.73" x2="-1530.56" y2="4540.99" gradientTransform="translate(3528.26 -1902.25)" gradientUnits="userSpaceOnUse"><stop offset="0" stop-color="#fff"/><stop offset="1"/></linearGradient><linearGradient id="linear-gradient-2" x1="-272.25" y1="3118.27" x2="780.7" y2="2065.32" gradientTransform="translate(4099.49 -2140.53)" xlink:href="#linear-gradient"/><linearGradient id="linear-gradient-3" x1="-2139.11" y1="2194.25" x2="-3607.83" y2="3273.99" gradientTransform="translate(3525.56 -2133.92)" xlink:href="#linear-gradient"/><clipPath id="clip-path"><path class="cls-4" d="M2891.66,0c-432,444.26-253.92,715.7,58,842.92C3992.73,1268.28,3889,152,4541.39,692.65,4776.1,887.16,5000,605.45,5000,605.45V0Z"/></clipPath><linearGradient id="linear-gradient-4" x1="2911.53" y1="1078.53" x2="4936.88" y2="-21.33" gradientUnits="userSpaceOnUse"><stop offset="0" stop-color="#0067af"/><stop offset="1" stop-color="#f856ea"/></linearGradient><clipPath id="clip-path-2"><path class="cls-4" d="M1671.49,2344.15c-557.32-39-299.28-474.34-669-908.64C696.15,1075.74,93.83,793.22,0,1658.51V2916H2442.34s160.95-412.36-100.59-566.63c-177.16-104.5-415.87,12.59-670.26-5.22"/></clipPath><linearGradient id="linear-gradient-5" x1="679.86" y1="947.45" x2="2317.87" y2="3337.24" xlink:href="#linear-gradient-4"/><clipPath id="clip-path-3"><path class="cls-4" d="M0,565.21c593.15,494.07,771.05,112.56,1041.44-137.8,113.13-104.74,304.82-195.32,678.05-196.65,102-.36,141.09-144.39,105.89-230.76H0Z"/></clipPath><linearGradient id="linear-gradient-6" x1="187.6" y1="875.75" x2="1648.4" y2="194.98" xlink:href="#linear-gradient-4"/><mask id="mask" x="18.1" y="1087.34" width="1713.42" height="1271.98" maskUnits="userSpaceOnUse"><rect class="cls-1" x="18.1" y="1087.34" width="1713.42" height="1271.98"/></mask><clipPath id="clip-path-4"><path class="cls-4" d="M5000,1591.43c-145,704.28-1144.11,706.07-1144.11,706.07C3495.06,2343.29,2886,2426.82,3066,2916H5000Z"/></clipPath><linearGradient id="linear-gradient-7" x1="4568.26" y1="3058.51" x2="3642.47" y2="1866.86" xlink:href="#linear-gradient-4"/><mask id="mask-2" x="3848.84" y="0" width="1151.16" height="761.12" maskUnits="userSpaceOnUse"><rect class="cls-2" x="3848.84" width="1151.16" height="761.12"/></mask><mask id="mask-3" x="0" y="239.29" width="1515.98" height="566.11" maskUnits="userSpaceOnUse"><rect class="cls-3" y="239.29" width="1515.98" height="566.11"/></mask></defs><g id="Layer_2" data-name="Layer 2"><g id="Layer_1-2" data-name="Layer 1"><rect class="cls-5" width="5000" height="2916"/><g class="cls-6"><rect class="cls-7" x="2459.7" width="2540.3" height="1268.28"/></g><path class="cls-8" d="M4588.33,1504.24c-60.35,368.9-295.07,731.1-617,778.05S2864.84,2369.21,3066,2916H5000V1202.41s-351.31-67.08-411.67,301.83"/><g class="cls-9"><rect class="cls-10" y="793.22" width="2603.29" height="2122.78"/></g><g class="cls-11"><rect class="cls-12" width="1860.58" height="1059.28"/></g><g class="cls-13"><path class="cls-8" d="M18.1,1535.56C287.18,2529.23,1731.51,2346,1731.51,2346c-19.89.1-39.9-.46-60-1.87-557.32-39-299.28-474.34-669-908.64C711.69,1094,154.17,822.07,18.1,1535.56"/></g><g class="cls-14"><rect class="cls-15" x="2886.03" y="1591.43" width="2113.97" height="1324.57"/></g><g class="cls-16"><path class="cls-8" d="M5000,0C4600.19,4.92,3848.84,760.57,3848.84,760.57c209.49-170.19,341.64-358.72,692.55-67.92C4776.1,887.16,5000,605.45,5000,605.45Z"/></g><g class="cls-17"><path class="cls-8" d="M1516,241.73S420.47,189.83,0,565.21c593.15,494.07,771.05,112.56,1041.44-137.8C1131.87,343.68,1272.52,269,1516,241.73"/></g></g></g></svg>