<svg xmlns="http://www.w3.org/2000/svg" xmlns:xlink="http://www.w3.org/1999/xlink" viewBox="0 0 5894.72 1210.68"><defs><style>.cls-1,.cls-10,.cls-100,.cls-101,.cls-102,.cls-103,.cls-104,.cls-105,.cls-106,.cls-107,.cls-108,.cls-109,.cls-11,.cls-110,.cls-111,.cls-112,.cls-113,.cls-114,.cls-115,.cls-116,.cls-117,.cls-118,.cls-119,.cls-12,.cls-120,.cls-121,.cls-122,.cls-123,.cls-124,.cls-125,.cls-126,.cls-127,.cls-128,.cls-129,.cls-13,.cls-130,.cls-131,.cls-132,.cls-133,.cls-134,.cls-135,.cls-136,.cls-137,.cls-138,.cls-139,.cls-14,.cls-140,.cls-141,.cls-142,.cls-143,.cls-144,.cls-145,.cls-146,.cls-147,.cls-148,.cls-149,.cls-15,.cls-150,.cls-151,.cls-152,.cls-153,.cls-154,.cls-155,.cls-156,.cls-157,.cls-158,.cls-159,.cls-16,.cls-160,.cls-161,.cls-162,.cls-163,.cls-164,.cls-165,.cls-166,.cls-167,.cls-168,.cls-169,.cls-17,.cls-170,.cls-171,.cls-172,.cls-173,.cls-174,.cls-175,.cls-176,.cls-177,.cls-178,.cls-179,.cls-18,.cls-180,.cls-181,.cls-182,.cls-183,.cls-184,.cls-185,.cls-186,.cls-187,.cls-188,.cls-189,.cls-19,.cls-190,.cls-191,.cls-192,.cls-193,.cls-194,.cls-195,.cls-196,.cls-197,.cls-198,.cls-199,.cls-20,.cls-200,.cls-201,.cls-202,.cls-21,.cls-22,.cls-23,.cls-24,.cls-25,.cls-26,.cls-27,.cls-28,.cls-29,.cls-3,.cls-30,.cls-31,.cls-32,.cls-33,.cls-34,.cls-35,.cls-36,.cls-37,.cls-38,.cls-39,.cls-4,.cls-40,.cls-41,.cls-42,.cls-43,.cls-44,.cls-45,.cls-46,.cls-47,.cls-48,.cls-49,.cls-5,.cls-50,.cls-51,.cls-52,.cls-53,.cls-54,.cls-55,.cls-56,.cls-57,.cls-58,.cls-59,.cls-6,.cls-60,.cls-61,.cls-62,.cls-63,.cls-64,.cls-65,.cls-66,.cls-67,.cls-68,.cls-69,.cls-7,.cls-70,.cls-71,.cls-72,.cls-73,.cls-74,.cls-75,.cls-76,.cls-77,.cls-78,.cls-79,.cls-8,.cls-80,.cls-81,.cls-82,.cls-83,.cls-84,.cls-85,.cls-86,.cls-87,.cls-88,.cls-89,.cls-9,.cls-90,.cls-91,.cls-92,.cls-93,.cls-94,.cls-95,.cls-96,.cls-97,.cls-98,.cls-99{fill:none;}.cls-2{clip-path:url(#clip-path);}.cls-3{stroke:#14c5fb;}.cls-10,.cls-100,.cls-101,.cls-102,.cls-103,.cls-104,.cls-105,.cls-106,.cls-107,.cls-108,.cls-109,.cls-11,.cls-110,.cls-111,.cls-112,.cls-113,.cls-114,.cls-115,.cls-116,.cls-117,.cls-118,.cls-119,.cls-12,.cls-120,.cls-121,.cls-122,.cls-123,.cls-124,.cls-125,.cls-126,.cls-127,.cls-128,.cls-129,.cls-13,.cls-130,.cls-131,.cls-132,.cls-133,.cls-134,.cls-135,.cls-136,.cls-137,.cls-138,.cls-139,.cls-14,.cls-140,.cls-141,.cls-142,.cls-143,.cls-144,.cls-145,.cls-146,.cls-147,.cls-148,.cls-149,.cls-15,.cls-150,.cls-151,.cls-152,.cls-153,.cls-154,.cls-155,.cls-156,.cls-157,.cls-158,.cls-159,.cls-16,.cls-160,.cls-161,.cls-162,.cls-163,.cls-164,.cls-165,.cls-166,.cls-167,.cls-168,.cls-169,.cls-17,.cls-170,.cls-171,.cls-172,.cls-173,.cls-174,.cls-175,.cls-176,.cls-177,.cls-178,.cls-179,.cls-18,.cls-180,.cls-181,.cls-182,.cls-183,.cls-184,.cls-185,.cls-186,.cls-187,.cls-188,.cls-189,.cls-19,.cls-190,.cls-191,.cls-192,.cls-193,.cls-194,.cls-195,.cls-196,.cls-197,.cls-198,.cls-199,.cls-20,.cls-200,.cls-201,.cls-202,.cls-21,.cls-22,.cls-23,.cls-24,.cls-25,.cls-26,.cls-27,.cls-28,.cls-29,.cls-3,.cls-30,.cls-31,.cls-32,.cls-33,.cls-34,.cls-35,.cls-36,.cls-37,.cls-38,.cls-39,.cls-4,.cls-40,.cls-41,.cls-42,.cls-43,.cls-44,.cls-45,.cls-46,.cls-47,.cls-48,.cls-49,.cls-5,.cls-50,.cls-51,.cls-52,.cls-53,.cls-54,.cls-55,.cls-56,.cls-57,.cls-58,.cls-59,.cls-6,.cls-60,.cls-61,.cls-62,.cls-63,.cls-64,.cls-65,.cls-66,.cls-67,.cls-68,.cls-69,.cls-7,.cls-70,.cls-71,.cls-72,.cls-73,.cls-74,.cls-75,.cls-76,.cls-77,.cls-78,.cls-79,.cls-8,.cls-80,.cls-81,.cls-82,.cls-83,.cls-84,.cls-85,.cls-86,.cls-87,.cls-88,.cls-89,.cls-9,.cls-90,.cls-91,.cls-92,.cls-93,.cls-94,.cls-95,.cls-96,.cls-97,.cls-98,.cls-99{stroke-linecap:round;stroke-linejoin:round;stroke-width:35px;}.cls-4{stroke:#15c2fb;}.cls-5{stroke:#16c1fb;}.cls-6{stroke:#18bffb;}.cls-7{stroke:#18bdfb;}.cls-8{stroke:#1abbfb;}.cls-9{stroke:#1bb9fb;}.cls-10{stroke:#1cb7fa;}.cls-11{stroke:#1db6fa;}.cls-12{stroke:#1eb3fa;}.cls-13{stroke:#1fb2fa;}.cls-14{stroke:#20affa;}.cls-15{stroke:#21aefa;}.cls-16{stroke:#22adfa;}.cls-17{stroke:#23aafa;}.cls-18{stroke:#24a9fa;}.cls-19{stroke:#25a6fa;}.cls-20{stroke:#26a5fa;}.cls-21{stroke:#28a2fa;}.cls-22{stroke:#28a1fa;}.cls-23{stroke:#2a9ef9;}.cls-24{stroke:#2a9df9;}.cls-25{stroke:#2c9bf9;}.cls-26{stroke:#2d99f9;}.cls-27{stroke:#2e97f9;}.cls-28{stroke:#2f95f9;}.cls-29{stroke:#3093f9;}.cls-30{stroke:#3192f9;}.cls-31{stroke:#328ff9;}.cls-32{stroke:#338ef9;}.cls-33{stroke:#358bf9;}.cls-34{stroke:#358af9;}.cls-35{stroke:#3787f9;}.cls-36{stroke:#3786f9;}.cls-37{stroke:#3983f8;}.cls-38{stroke:#3a82f8;}.cls-39{stroke:#3b80f8;}.cls-40{stroke:#3c7ef8;}.cls-41{stroke:#3d7df8;}.cls-42{stroke:#3e7af8;}.cls-43{stroke:#3f79f8;}.cls-44{stroke:#4077f8;}.cls-45{stroke:#4175f8;}.cls-46{stroke:#4273f8;}.cls-47{stroke:#4371f8;}.cls-48{stroke:#456ff8;}.cls-49{stroke:#456ef8;}.cls-50{stroke:#476bf7;}.cls-51{stroke:#476af7;}.cls-52{stroke:#4967f7;}.cls-53{stroke:#4a66f7;}.cls-54{stroke:#4b63f7;}.cls-55{stroke:#4c62f7;}.cls-56{stroke:#4d5ff7;}.cls-57{stroke:#4e5ef7;}.cls-58{stroke:#4f5cf7;}.cls-59{stroke:#505af7;}.cls-60{stroke:#5258f7;}.cls-61{stroke:#5256f7;}.cls-62{stroke:#5454f7;}.cls-63{stroke:#5453f6;}.cls-64{stroke:#5650f6;}.cls-65{stroke:#574ff6;}.cls-66{stroke:#574df6;}.cls-67{stroke:#594bf6;}.cls-68{stroke:#5a4af6;}.cls-69{stroke:#5b47f6;}.cls-70{stroke:#5c47f5;}.cls-71{stroke:#5f46f2;}.cls-72{stroke:#6046f1;}.cls-73{stroke:#6245ee;}.cls-74{stroke:#6445ed;}.cls-75{stroke:#6644ea;}.cls-76{stroke:#6744e9;}.cls-77{stroke:#6a43e7;}.cls-78{stroke:#6b43e5;}.cls-79{stroke:#6d42e3;}.cls-80{stroke:#6f42e1;}.cls-81{stroke:#7141df;}.cls-82{stroke:#7241de;}.cls-83{stroke:#7540db;}.cls-84{stroke:#763fda;}.cls-85{stroke:#783fd7;}.cls-86{stroke:#793ed6;}.cls-87{stroke:#7c3ed3;}.cls-88{stroke:#7d3dd2;}.cls-89{stroke:#803dcf;}.cls-90{stroke:#813cce;}.cls-91{stroke:#823ccd;}.cls-92{stroke:#843bca;}.cls-93{stroke:#863bc9;}.cls-94{stroke:#883ac6;}.cls-95{stroke:#893ac5;}.cls-96{stroke:#8c39c3;}.cls-97{stroke:#8d39c1;}.cls-98{stroke:#8f38bf;}.cls-99{stroke:#9138bd;}.cls-100{stroke:#9337bb;}.cls-101{stroke:#9437ba;}.cls-102{stroke:#9736b7;}.cls-103{stroke:#9836b6;}.cls-104{stroke:#9a35b3;}.cls-105{stroke:#9c35b2;}.cls-106{stroke:#9e34af;}.cls-107{stroke:#9f34ae;}.cls-108{stroke:#a233ab;}.cls-109{stroke:#a333aa;}.cls-110{stroke:#a532a8;}.cls-111{stroke:#a732a6;}.cls-112{stroke:#a931a4;}.cls-113{stroke:#aa31a3;}.cls-114{stroke:#ad30a0;}.cls-115{stroke:#ae309f;}.cls-116{stroke:#af2f9d;}.cls-117{stroke:#b22f9b;}.cls-118{stroke:#b32e9a;}.cls-119{stroke:#b52e97;}.cls-120{stroke:#b62d96;}.cls-121{stroke:#b92d93;}.cls-122{stroke:#ba2c92;}.cls-123{stroke:#bd2c8f;}.cls-124{stroke:#be2b8e;}.cls-125{stroke:#c02b8b;}.cls-126{stroke:#c12a8a;}.cls-127{stroke:#c42a88;}.cls-128{stroke:#c52986;}.cls-129{stroke:#c82984;}.cls-130{stroke:#c92882;}.cls-131{stroke:#cb2880;}.cls-132{stroke:#cc277f;}.cls-133{stroke:#cf277c;}.cls-134{stroke:#d0267b;}.cls-135{stroke:#d32678;}.cls-136{stroke:#d42577;}.cls-137{stroke:#d62574;}.cls-138{stroke:#d72473;}.cls-139{stroke:#da2370;}.cls-140{stroke:#db236f;}.cls-141{stroke:#dc236e;}.cls-142{stroke:#df226b;}.cls-143{stroke:#e0226a;}.cls-144{stroke:#e22167;}.cls-145{stroke:#e42166;}.cls-146{stroke:#e62064;}.cls-147{stroke:#e72062;}.cls-148{stroke:#ea1f60;}.cls-149{stroke:#eb1f5e;}.cls-150{stroke:#ed1e5c;}.cls-151{stroke:#ef1e5b;}.cls-152{stroke:#f11d58;}.cls-153{stroke:#f11e58;}.cls-154{stroke:#f12157;}.cls-155{stroke:#f12257;}.cls-156{stroke:#f12557;}.cls-157{stroke:#f12657;}.cls-158{stroke:#f12956;}.cls-159{stroke:#f12a56;}.cls-160{stroke:#f12c56;}.cls-161{stroke:#f22e56;}.cls-162{stroke:#f23055;}.cls-163{stroke:#f23255;}.cls-164{stroke:#f23455;}.cls-165{stroke:#f23554;}.cls-166{stroke:#f23754;}.cls-167{stroke:#f23954;}.cls-168{stroke:#f23b54;}.cls-169{stroke:#f23d53;}.cls-170{stroke:#f23e53;}.cls-171{stroke:#f24153;}.cls-172{stroke:#f24253;}.cls-173{stroke:#f24552;}.cls-174{stroke:#f24652;}.cls-175{stroke:#f24952;}.cls-176{stroke:#f24a51;}.cls-177{stroke:#f24c51;}.cls-178{stroke:#f34e51;}.cls-179{stroke:#f35050;}.cls-180{stroke:#f35250;}.cls-181{stroke:#f35450;}.cls-182{stroke:#f35550;}.cls-183{stroke:#f3584f;}.cls-184{stroke:#f3594f;}.cls-185{stroke:#f35c4f;}.cls-186{stroke:#f35d4f;}.cls-187{stroke:#f3604e;}.cls-188{stroke:#f3614e;}.cls-189{stroke:#f3644e;}.cls-190{stroke:#f3654d;}.cls-191{stroke:#f3664d;}.cls-192{stroke:#f3694d;}.cls-193{stroke:#f36a4d;}.cls-194{stroke:#f46d4c;}.cls-195{stroke:#f46e4c;}.cls-196{stroke:#f4704c;}.cls-197{stroke:#f4724c;}.cls-198{stroke:#f4744b;}.cls-199{stroke:#f4764b;}.cls-200{stroke:#f4784b;}.cls-201{stroke:#f4794a;}.cls-202{stroke:#f47c4a;}</style><clipPath id="clip-path" transform="translate(747.36 -474.66)"><rect class="cls-1" width="4400" height="2160"/></clipPath></defs><g id="Layer_2" data-name="Layer 2"><g id="Layer_5" data-name="Layer 5"><g class="cls-2"><path class="cls-3" d="M5129.86,1097c-265.8,0-97.09-6.6-415,60.16-644.95,127.15-1027.3-108.32-1367.28-232.38-250.69-88.86-490-120.45-586-112.81-339.08,53.45-557.66,486-1025.43,283.4-410.33-193-552.58-507.78-1025.46-229.78-276.34,169.17-370.85,282.88-634.8,301.83-272.17,16.56-399.37-29.71-634.81-69.33-32.51-1.45-.71-1.09-170.91-1.09" transform="translate(747.36 -474.66)"/><path class="cls-4" d="M5129.86,1097c-207.75.37-121.06-7.72-341.78,43.42-253.48,56.63-372.15,52-659.25,37.52-457.82-33.47-745-316.51-1294-378.87-339.8-31.07-565.08,440.73-1001,340.31-403.15-112.2-577.53-513.78-1025.46-318.23C331.49,1047.34,381,1269.25-461.28,1114.64-581.5,1093-544.33,1097.05-729.86,1097" transform="translate(747.36 -474.66)"/><path class="cls-5" d="M5129.86,1097c-285.14.62-184.13,22.16-488.3,70.67-163.14,23.68-249.83,19.21-415.08,14.71-156.54-3.42-237.08-6.36-415-60.19-299.65-95.43-797.31-372.85-1074.29-334.53-338.59,72.67-558.14,518.25-1025.46,317.8-258.77-121-392.41-293.94-634.8-325.57C696.94,751.48,512.66,1134,51.44,1158.53c-318.7,13.52-498.83-55.19-634.8-61.3-32.35-.21-4.35-.15-146.5-.22" transform="translate(747.36 -474.66)"/><path class="cls-6" d="M5129.86,1097c-269.49.53-142.29,11.34-463.86,65.43-174.72,27.06-261.66,22.84-439.52,20.79-158.78-.91-241.68-2.71-415-52.54-344.6-104.93-802.67-392.1-1074.29-357.1-337.9,70-562.13,531.81-1025.46,342.68-247.06-111-374.82-276.76-610.39-321.38C717.19,742.94,513.7,1126.32,75.86,1152.13c-295.13,14.55-427.17-27.92-634.81-53.69-33.44-1.52-13.57-1.41-170.91-1.43" transform="translate(747.36 -474.66)"/><path class="cls-7" d="M5129.86,1097c-265.84.71-137.12,10.81-463.86,64.08-193.58,29.12-288.85,21.41-463.91,23.23-152.52,2.57-249.77-4.16-415.08-52.24-382.17-118.46-805.88-421.36-1074.28-367.68C2364.45,860.73,2146.9,1333.2,1662.87,1105c-246.18-125.36-380-296.18-634.81-304.68C794,804.86,637.89,945.6,393.26,1066c-151.37,70.61-218.83,78.9-390.65,83.72-345.37,6.22-370.88-52.67-732.47-52.72" transform="translate(747.36 -474.66)"/><path class="cls-8" d="M5129.86,1097c-298.68,1-306.84,62.1-659.21,82.67-98.52,4.66-137,3.11-244.17,5.22-160.54,4.27-246,6.2-415-37.22-429.2-118.9-818.51-451.51-1098.72-397.52-338.84,92.11-564.76,567.63-1025.44,377.62-246.76-112.37-376.43-291.17-634.81-315.08-233.14-9.45-389.07,120.13-634.81,241-159.52,75-228.87,84.48-390.64,90.07-372.1,10-384.53-46.69-756.89-46.76" transform="translate(747.36 -474.66)"/><path class="cls-9" d="M5129.86,1097c-285.36.78-302.76,55.92-634.77,79.57-111.81,6.75-154.66,5-268.61,8.93-160.3,6.74-246.57,11-415-29.64-433.27-114-796.09-451.55-1074.29-423.51C2398,795.51,2164.38,1306,1711.7,1148.68c-248.86-98.4-374-283.32-634.8-322.73-373.66-37.32-552.06,292.66-1025.46,311.2-398.32,13.28-395.09-40.19-781.3-40.14" transform="translate(747.36 -474.66)"/><path class="cls-10" d="M5129.86,1097c-339.1,1.06-227,64.5-854.51,86.88-153.23,6.35-237,22.49-415.08-9.37C3410.87,1083.55,3086.09,743.2,2786,717c-350,.48-592.62,576.86-1049.87,450.53-243.77-80-358.22-256.68-610.39-321.67-384.36-79.84-601,260.69-1025.45,283.58-466,20-409.88-32.62-830.14-32.42" transform="translate(747.36 -474.66)"/><path class="cls-11" d="M5129.86,1097c-277.75,1-267,46.32-610.38,74.45-114.12,8.33-158.43,7.62-268.56,13.69-149.28,9.52-237.93,25.18-415.08-7.76-463.21-97.7-783.42-470.45-1074.29-473.24-341,28.31-583.05,586.48-1025.43,473.73-243.7-75.33-353.46-253.4-610.39-320.76-382.79-81.49-597.4,245.58-1025.45,266.7C-374,1142.39-324.6,1096.7-729.86,1097" transform="translate(747.36 -474.66)"/><path class="cls-12" d="M5129.86,1097c-272.08,1.15-260.27,44.12-610.38,72.76-119.17,8.79-156.28,7.91-268.56,15.62-146.23,11.48-238.77,29.71-415.08-.18C3377.18,1095.49,3080.77,725.1,2786,691.77c-344.8-7-588.26,578.94-1025.46,502.17-246-57.44-351.55-237.68-610.39-319.05C767,772.81,533.81,1091.22,124.69,1117.11c-488.06,21.76-440.92-20.56-854.55-20.1" transform="translate(747.36 -474.66)"/><path class="cls-13" d="M5129.86,1097c-271.31,1.29-247.81,41.56-610.38,71.06-108.77,8.13-144.37,8.26-244.13,15.54-155.2,12.77-240.59,35.16-415.08,13.12-480.92-73.58-773-479.58-1074.28-517.47-347-10.9-589.09,591-1025.46,524.52-246.3-52.27-346.84-233.7-610.39-317.55C768,782.72,537.65,1088.11,124.69,1111.55c-513,20.51-442-15.14-854.55-14.54" transform="translate(747.36 -474.66)"/><path class="cls-14" d="M5129.86,1097c-203.82,1.11-169.44,13.39-415,48.47-204.82,27.59-305.87,25.12-463.9,40-295.19,31.41-462,58.53-781.29-119.23-418.57-242.22-575.87-494.52-854.55-357-288.62,162.53-503.2,550.54-854.55,504.5C1461,1156.06,1331.16,859.42,954.82,874.06c-302.2,24.16-485.66,213.28-830.13,231-561.76,20.4-425.12-8.94-854.55-8.07" transform="translate(747.36 -474.66)"/><path class="cls-15" d="M5129.86,1097c-255.92,1.6-237.41,37.88-610.38,67.63-126.29,9.47-171.11,10.39-268.56,20.78-283.16,33.85-458.72,72.33-781.29-110.8-277.54-164.32-453.47-363-659.21-412.93-222.86-33.58-375.35,189.06-634.83,404.69-477.05,380.22-639.84-15.21-1001-150.7C790,788.75,556.51,1070.21,149.1,1097.48c-518.83,23.9-480.46-1.71-879-.47" transform="translate(747.36 -474.66)"/><path class="cls-16" d="M5129.86,1097c-250.39,1.74-227.84,35.71-610.38,65.91-126.47,9.5-174.53,11.24-268.56,22.4-138.45,18.37-227.43,43.74-390.65,31.45-486.19-50.82-744.46-486.65-1049.85-565.4-350.44-57.18-599.34,594-1025.47,584.55-247.29-21.84-341.71-207.2-610.39-309.41-233-78.29-400.49-12.87-634.81,72.17C181.93,1127.4,158.1,1094.21-729.86,1097" transform="translate(747.36 -474.66)"/><path class="cls-17" d="M5129.86,1097c-193.12,1.47-175.21,15.39-415,45.38-221.21,26.06-323.57,22.34-488.34,46.39-154.48,24.84-248.94,49.48-415,29.59-606.52-91.9-827-785.44-1245.2-512.58-281.95,201.56-494,579.82-830.13,534.69C1444.38,1181.93,1329,886.8,930.4,901.06c-312.84,22.55-425.52,174.62-879,186.42-725.62,22.91-176.76,7.81-781.3,9.53" transform="translate(747.36 -474.66)"/><path class="cls-18" d="M5129.86,1097c-198.5,1.67-180.2,18-439.47,47.1-219.72,23.3-321.89,20.05-488.3,49.13-338,63-513.31,60.18-805.72-142.25-417.66-301.29-540.68-565.78-854.55-338.12-292.47,229.83-506.43,614.68-854.53,527.52-261.25-82.55-400.14-363.88-805.72-327.5-166.42,20.17-275.46,70-463.9,122.49-188.57,49.84-243.79,40.35-415.06,47.19C-369.93,1099.79-104.46,1095-729.86,1097" transform="translate(747.36 -474.66)"/><path class="cls-19" d="M5129.86,1097c-247.71,2.32-90.53,19.27-708,68.26-390,32.74-596.83,182.67-1001-90.48-270.34-190.89-436.36-417-634.81-456.44-229.18-20.73-388.86,247.26-659.23,485.32-465.45,390.9-606.63-37.23-1001-161.37-236.8-64.53-406.43,5.66-659.22,76.41-192.38,52-252.36,50.51-415.07,54.88-270.82,9.54-133.62,20.88-781.3,23.42" transform="translate(747.36 -474.66)"/><path class="cls-20" d="M5129.86,1097c-185.21,1.91-174.41,16.46-415,42.44-220.55,22.4-328.22,20.18-488.34,49.16-142.18,28.26-247.39,62.37-415,49.47-599.14-66.92-813.34-819.61-1220.81-575.37-290.33,196.6-509.67,637.45-854.52,609.88-285.9-43.47-392.21-342.89-805.72-348.49-162.23,3.25-277.33,43.58-463.89,91.85-206.95,51.73-271.23,46.41-415.07,50.42-243.14,9.3-221.44,28.06-781.3,30.64" transform="translate(747.36 -474.66)"/><path class="cls-21" d="M5129.86,1097c-180.81,2.06-179.13,17.36-415,41.49-125.37,12.07-176,13.77-293,23.59-388.82,35.27-600.28,206.75-1001-73.54C3137,880.43,2969.33,622,2761.55,599.79c-227.88,1.61-389.65,286.57-659.2,527.77-457.66,389.45-586.68-50.65-1001-172.26-348.56-88.38-512.55,92.86-1025.45,103.15-238.1,7-280.34,35.79-805.72,38.56" transform="translate(747.36 -474.66)"/><path class="cls-22" d="M5129.86,1097c-179.09,2.21-175.79,17.36-415,40.54-127,11.53-174.3,12.72-293,23-301.53,28.34-378.23,101.35-610.38,90-502.14-43-742.34-623.36-1049.9-658.84-345.62.33-603.76,721.56-1025.43,702.59-235.79-28.44-310.76-218.68-610.39-321.64C772.87,865.27,605.38,1040.73,75.86,1051.2c-230,7-333.17,43.64-805.72,45.81" transform="translate(747.36 -474.66)"/><path class="cls-23" d="M5129.86,1097c-175.3,2.36-178.69,18-415,39.6-221.89,19-329.52,17.47-488.34,51.42-303,71-480.28,136.52-781.29-68.23C3045.26,830.86,2901,446.7,2590.64,638.6c-284.27,199.59-499.73,650.53-830.11,667.14-287.48-8-382-316.57-805.71-357.91-292.44-19.07-412.47,87-879,96.15-229.21,7.3-359.28,50.73-805.72,53" transform="translate(747.36 -474.66)"/><path class="cls-24" d="M5129.86,1097c-182,2.69-178,19.64-439.47,40.78-128.49,9.79-187,11.55-293,22.06-273.37,30.3-358.35,106.49-585.94,101C3305.78,1229.28,3071,618.6,2761.55,579c-352.3-2.82-618.68,774.36-1049.85,735.2-225.61-38.15-303.33-228.53-610.39-329.14-231.95-67.39-403.71-19.75-659.22,23.53C219.94,1044.6,174,1031.58,27,1039c-215.95,14.42-360.9,55.7-756.89,58" transform="translate(747.36 -474.66)"/><path class="cls-25" d="M5129.86,1097c-174.22,2.79-172.7,18.28-415,38-133.72,10.18-184,11.06-293,20.93-295.62,29.82-375.58,112.32-610.38,109.3-507.23-26.31-739.62-649.83-1049.9-691-351.63-3.91-620.41,784.52-1049.85,751.69-224.07-35.06-300.33-225.2-610.39-330.78-231.07-70.33-403.74-28.46-659.22,9.82-210.17,30.22-258.31,20.92-390.65,25.81-225.57,12.29-377.75,63.61-781.3,66.23" transform="translate(747.36 -474.66)"/><path class="cls-26" d="M5129.86,1097c-173.6,3-170,18.43-415,37.21-204.67,14.6-313.61,14.28-463.9,46.41-272,64.7-479.65,183.35-805.73-44-389-289.4-530.81-690.26-830.11-526.86-288.15,184.34-516.1,694.4-854.55,728.93-282.55,5.71-370.29-301.2-805.71-367.7-268.06-32.91-382.85,40.57-879,51.86-237.41,9.37-396.06,71.24-805.72,74.18" transform="translate(747.36 -474.66)"/><path class="cls-27" d="M5129.86,1097c-172.06,3.22-169.33,18.78-415,36.42-210,14-328.67,13.22-488.34,52.48-143.09,38.61-250,86.52-415,88.11-611.63-18.8-801.33-924.43-1220.81-653.06-288.57,212.44-517.85,717.44-854.52,729.58-269.36-12.89-364.38-312.63-805.72-375.32-159-18.17-282.39-1-463.89,19.79-248,27.56-277.43,16-415.07,21.8-230.1,14.35-393.54,77.16-781.3,80.2" transform="translate(747.36 -474.66)"/><path class="cls-28" d="M5129.86,1097c-171.44,3.45-168.08,19.13-415,35.65-140.28,8.7-187.8,9-293,18.82-290,30.78-374.2,121.85-610.38,126.65C3315.7,1267.93,3089.82,646.77,2786,564.08c-350.76-51.39-627.66,776-1049.87,797.88-228.92-7.66-291.68-195.52-610.39-327.15-235.41-89.28-417-65.4-683.64-40.57-255.8,22.59-272.75,8-415.06,17.37-229.53,20.15-389.45,82.27-756.89,85.4" transform="translate(747.36 -474.66)"/><path class="cls-29" d="M5129.86,1097c-170.75,3.73-175.39,21.14-439.47,36.52-127.16,6.93-174,7.89-268.56,16.69-288.9,30.74-373.89,123.52-610.38,130.07-496.56-6.66-721.53-633.62-1025.46-716.5-351.3-51.32-627.61,782.05-1049.87,810-227.36-4.56-288.86-190.57-610.39-327.32-201.19-79-359.5-77.71-586-62C106.87,1016,167.44,993.08,2.61,1008.29c-223.9,25.28-385.6,85.53-732.47,88.72" transform="translate(747.36 -474.66)"/><path class="cls-30" d="M5129.86,1097c-172.23,4.07-165.5,19.78-415,34.54-194.94,10.61-312.28,10.06-463.9,45.74-293.57,77-486.46,203.79-805.73-22.81-387.06-294.34-527.85-725-830.11-552.63-284.69,190.43-520.14,725.94-854.55,781.85-277.92,22.45-351.17-275.72-805.71-379.38-137.71-27.73-247.26-27.63-390.65-21.52-598.61,28.46-145,5.34-488.31,14.68-248.88,12.25-414,95.66-805.72,99.53" transform="translate(747.36 -474.66)"/><path class="cls-31" d="M5129.86,1097c-170.15,4.3-166,20.2-415,34-129.53,6.56-188.65,7-293,16.7-288.59,30.87-371.84,126.78-610.38,136.91-498.12.33-721-637.94-1025.46-721.38C2436.6,512.51,2156,1357.53,1736.12,1397.53c-223.89,1.52-284.06-180.86-610.39-327.66-198.78-83.34-357.93-92.33-586-86.49C53,997.89,147.65,985.65,27,994.9c-234.17,23.77-396.74,98.31-756.89,102.11" transform="translate(747.36 -474.66)"/><path class="cls-32" d="M5129.86,1097c-168.42,4.55-166.42,20.62-415,33.43-133.77,6.25-189.86,6.48-293,16-285.61,30.63-372.86,128.51-610.38,140.33-498.51,3.85-721-640.26-1025.46-723.81-349.28-50.55-630.49,800.47-1049.87,846.44-334.68,6.81-346.87-429.57-1196.37-426.58-515.4,4.4-463.57-.41-561.56,12.29-226.85,34-381.57,98.3-708.05,101.92" transform="translate(747.36 -474.66)"/><path class="cls-33" d="M5129.86,1097c-163,4.69-170.15,21.22-415,32.92-137.87,6-190.13,5.85-293,15.26-287,30.74-370.71,129.81-610.38,143.33C3311.93,1295.63,3090.9,647,2786,563.52,2431.07,512.68,2139.56,1407.65,1711.7,1422c-313.3-18-351.93-424.4-1171.95-439.4C59.21,976.45,53.08,980-21.81,990.1c-230.69,36-381.53,103.06-708.05,106.91" transform="translate(747.36 -474.66)"/><path class="cls-34" d="M5129.86,1097c-163.6,5-170.34,21.64-415,32.63-138,5.58-190.39,5.32-293,14.55-389.29,41.06-607.44,301.6-1001,2.94C3147.76,926.79,2991.56,623.85,2786,569c-229.95-31.32-392.15,288.89-683.64,619.16-453.7,496.32-559.54,120.86-976.62-80.78-191.09-87.21-350.27-113.13-586-122.64-466.35-16-507.24-7.87-610.38,10.49-232,44.9-363.69,98.19-659.23,101.79" transform="translate(747.36 -474.66)"/><path class="cls-35" d="M5129.86,1097c-160.46,5.29-165.45,20.55-390.65,31.31-131.31,5.56-187,4.83-292.95,12.7-302,26.62-368.19,120.54-610.42,145.21-503.78,31.36-721.05-587.79-1025.42-705.42-359.11-93.21-646,799.83-1074.3,863.79-313.55,18.4-369-400-1171.95-456.25-61-3.81-437-25.3-586-4.46-235,38.15-381.35,109-708.05,113.12" transform="translate(747.36 -474.66)"/><path class="cls-36" d="M5129.86,1097c-158,5.53-168.34,21.07-390.65,31.09-210,8.29-328.47,3.61-488.29,42.93-253.82,69.9-478.1,224.86-805.73-3.15-386.81-289.38-526.68-729-830.11-544.12-291.22,206.42-540.65,777.71-879,832.53C1422.81,1478.63,1371.75,1065.84,564.17,991c-111.41-9.41-377.67-23.32-488.31-20.06C-180.58,985.73-346.46,1092-729.86,1097" transform="translate(747.36 -474.66)"/><path class="cls-37" d="M5129.86,1097c-162.24,6-171.38,22.84-415,31.77-119.58,3.84-172,3.5-268.56,10.31-300,25.35-367.48,120.13-610.42,146.22-504.24,34.4-721-580.68-1025.42-693.9-357.15-87.62-647.46,802-1074.3,876.58-309.07,25.92-373.82-389.37-1196.37-477-836.07-82.24-676,98.12-1269.61,106" transform="translate(747.36 -474.66)"/><path class="cls-38" d="M5129.86,1097c-172.48,6.77-164.74,23-415,31.52-120.08,3.53-172.3,3-268.56,9.63-305.13,25.16-362.8,119.18-610.42,146.24-504.69,35.46-721.18-576.13-1025.42-686.52-356.4-84.35-647.14,801.68-1074.3,881.55-304.9,29.3-380.41-380.82-1196.37-485.63C-267.33,897-139.75,1088.94-729.86,1097" transform="translate(747.36 -474.66)"/><path class="cls-39" d="M5129.86,1097c-164.23,6.8-171,23.56-415,31.44-141.82,3.9-190.57,2.77-293,10.85-289,27.59-364.3,126.74-610.38,143.73C3311,1297.12,3091,671.86,2786,604.45,2437.17,572.24,2134.32,1447,1711.7,1492.3c-287.27,4.59-384.85-381-1196.36-495.93C-248.74,894.71-144,1089.08-729.86,1097" transform="translate(747.36 -474.66)"/><path class="cls-40" d="M5129.86,1097c-168.06,7.34-170.39,23.93-415,31.36-136.13,3.47-189.75,2.25-293,10.06-289.89,26.65-362.86,124.75-610.38,141.51C3311.54,1293.68,3090.5,679.31,2786,616.81c-347.36-27.14-652.6,836.07-1074.29,886-274.77,7.63-400.92-371-1196.36-500.95-742.26-114.66-663.49,87.33-1245.2,95.13" transform="translate(747.36 -474.66)"/><path class="cls-41" d="M5129.86,1097c-164.79,7.58-172.93,24.36-415,31.29-134.84,3.15-189.45,1.78-293,9.26-298.19,26.33-356.77,122.44-610.38,139.3-499.52,13.39-721-590-1025.46-647.69-347-22.23-652.88,829.64-1074.29,884.18-276.81,11-405.36-359.46-1196.36-506-721.61-126.71-667.88,82-1245.2,89.64" transform="translate(747.36 -474.66)"/><path class="cls-42" d="M5129.86,1097c-163.89,7.92-174.48,24.78-415,31.21-128.6,2.76-188.34,1.27-293,8.47-289.56,24.58-360.95,120.84-610.38,137.08-499.18,13-721.1-579.37-1025.46-632.24-345.25-17.21-653.7,823.24-1074.29,882.35-263,13.61-425-351.31-1196.36-511-703.45-138.5-670.17,76.58-1245.2,84.13" transform="translate(747.36 -474.66)"/><path class="cls-43" d="M5129.86,1097c-162.95,8.23-176.26,25.18-415,31.14-127.52,2.49-171,1-268.56,6.06-305,19.82-357.87,109.29-610.42,134.39C3317.53,1301.36,3096.15,703.76,2786,655.26c-343.51-11.81-654.52,815.08-1074.29,878.51-257.77,16.38-439.07-341.2-1196.36-514.52C-172.57,869.09-154.32,1089.6-729.86,1097" transform="translate(747.36 -474.66)"/><path class="cls-44" d="M5129.86,1097c-161,8.48-179,25.58-415,31.12-121.79,2.17-170,.62-268.56,5.22-305.19,18.31-357,105.87-610.42,129.58C3318.74,1293.09,3095.78,715.65,2786,674.5c-342.53-4.82-654.29,799.71-1074.29,866.65-189,14.11-232.32-96.75-610.39-291.67-192.33-97-372.2-166.69-586-220.34C-161.06,866.83-148.59,1090-729.86,1097" transform="translate(747.36 -474.66)"/><path class="cls-45" d="M5129.86,1097c-161.49,8.85-171.92,24.28-390.65,30.55-113.59,2.5-166,.72-268.56,3.91-321.11,13.46-354.15,92.83-610.38,123.64-518.78,45.51-740.95-490.52-1049.85-558.69-348.38-38-649.55,743.09-1074.3,848-193.29,32.43-239.56-71.27-610.39-264.47-189.14-96.7-372-173.49-586-234.26C-140.8,860-149.28,1090.48-729.86,1097" transform="translate(747.36 -474.66)"/><path class="cls-46" d="M5129.86,1097c-158,9-174.59,24.6-390.65,30.57-113.22,2.32-164.52.38-268.56,3.16-321.51,12-353.06,89.6-610.38,118.83-501.52,41.15-722.1-440.3-1025.46-529.76-353.24-68.47-646.43,686.09-1074.28,825.62-199.29,50.39-256.39-50-610.39-235-237.73-122.34-420.25-194.27-586-246.8-687.47-210.43-713.85,27.28-1294,33.41" transform="translate(747.36 -474.66)"/><path class="cls-47" d="M5129.86,1097c-152.76,9.06-179,25-390.65,30.58-126.44,2.42-183-.35-292.95,3.2-306.3,13.6-353.06,95.49-610.42,115.11-497.21,21.92-722.34-461.54-1025.42-512.15-346.11-21.41-649,715-1074.3,825-188.06,34.71-225.94-50-634.81-255.32C-44.12,735-65.71,1090.53-729.86,1097" transform="translate(747.36 -474.66)"/><path class="cls-48" d="M5129.86,1097c-156.59,9.6-188.06,27-415,31-125.2,1.43-165.15-1-268.56,1.86-307.26,11.9-351,91.72-610.42,109.81C3340,1258.83,3114.12,795.59,2810.42,753.57c-344.72-12.79-648.25,699.07-1074.3,811.36-182.13,35-217.85-36.9-634.81-243.34C-94.85,733.78-16.77,1090.73-729.86,1097" transform="translate(747.36 -474.66)"/><path class="cls-49" d="M5129.86,1097c-157.24,9.88-190,27.17-415,30.8-201,1.9-311.19-7.25-463.9,19.38-250.78,50.73-460.9,166-805.73-5.53C3053.07,933.42,2907.34,637.42,2590.64,858c-285.15,216.26-530.6,623.84-854.52,709.47-240.57,47.4-269.75-98.59-1098.7-437.64C-85.5,840.32-128.33,1092.45-729.86,1097" transform="translate(747.36 -474.66)"/><path class="cls-50" d="M5129.86,1097c-155.25,10-192.92,27.39-415,30.61-204.57,1.58-311.1-8.37-463.9,16.6-231,44.07-452.52,158.9-805.73-7.82C3068.62,947,2913.27,681.4,2615.08,867c-281.08,192.72-526.72,589.9-854.55,696.64-170.14,45.14-247.56-11.09-439.48-102.49C153,911.2,220,955-412.45,1069.59c-138.31,23.65-203.73,26.71-317.41,27.42" transform="translate(747.36 -474.66)"/><path class="cls-51" d="M5129.86,1097c-157.71,10.42-194.46,27.56-415,30.43-125.24.73-184-2.78-293-.8-302,9.12-338.44,84.58-610.38,88.9-484.12-6-720.14-404.78-1025.46-389.4C2451.06,873,2134.33,1490.32,1711.7,1577.72c-136.57,19.67-167.55,3.2-708.05-245-199.75-92.78-280.46-133.41-415.07-191.52C-77.16,859.59-128.59,1094.08-729.86,1097" transform="translate(747.36 -474.66)"/><path class="cls-52" d="M5129.86,1097c-153.8,10.41-197.81,27.77-415,30.24-116.1.47-159-2.48-268.56-2.27-398.09,4.47-569,182.9-1001.07.9C3160.43,998.72,2998,833.76,2786,850.63,2449.5,905.81,2137.9,1490.2,1711.7,1580.42c-113.89,17.39-168.26,22.19-756.88-250.74-524-245.29-712-371.91-1147.54-297.43-221.69,39.57-307,63.92-537.14,64.76" transform="translate(747.36 -474.66)"/><path class="cls-53" d="M5129.86,1097c-156.29,10.77-199.37,27.86-415,30-204.47.42-310.1-11.91-463.9,8.1-219.25,34.14-435.68,131.15-805.73-15C3065,961.37,2912.07,766.5,2615.08,945.25c-285.53,186.07-541.67,541.14-879,631.22-148.28,32-202.83,9.51-561.56-132.45-596-239.54-827.7-482.38-1318.44-415.67-228.15,33.82-320.5,68.05-586,68.66" transform="translate(747.36 -474.66)"/><path class="cls-54" d="M5129.86,1097c-155.52,10.78-202.34,27.8-415,29.39-214.54-.09-325.72-14.86-488.34,8.19-256.56,42.5-443.29,108.58-805.68-31.17-374.7-150.73-524.26-309.29-830.16-115C2298.42,1186.18,2029,1526,1687.29,1582.94c-110.29,12.53-160.49,4.27-512.73-123.67-570.87-212.1-807.13-479.52-1294-428.59-234.44,28-326.69,66.1-610.39,66.33" transform="translate(747.36 -474.66)"/><path class="cls-55" d="M5129.86,1097c-292.1,20.41-121.08,34.13-683.6,22.92-315.25-4-335.12,56.93-610.42,57.68C3354.49,1168.53,3104.61,874.07,2786,928.9c-328.47,78.32-643.24,553.22-1074.29,647.1-139.89,24.15-210,1.31-488.31-85.56-573.66-184.07-820.31-482.43-1294-458C-306.95,1049.15-417,1097.23-729.86,1097" transform="translate(747.36 -474.66)"/><path class="cls-56" d="M5129.86,1097c-289.8,20.37-151.6,35.73-683.6,21.08-388.26-8.15-517.11,123.46-976.63-12.3-281.62-86.94-443.91-186.43-659.21-155.24C2591,995.21,2420,1177.45,2126.76,1379.12c-421.14,282.24-575.64,210.35-854.54,138.17C854.48,1406,684.31,1253.31,368.84,1121-62.8,948.13-221,1098.12-729.86,1097" transform="translate(747.36 -474.66)"/><path class="cls-57" d="M5129.86,1097c-277.63,19.62-178.48,37.06-683.6,19.24-389.29-11.33-498.72,110.49-976.63-18.45C3186,1018.4,3026.47,937,2810.42,976.41c-219,51.41-392.22,224.09-683.66,410.91C1706,1650.07,1546,1589,1272.22,1529.08c-394.93-90.13-573.07-244.1-879-383.93C-50.16,950.36-213.81,1098.9-729.86,1097" transform="translate(747.36 -474.66)"/><path class="cls-58" d="M5129.86,1097c-269.12,19-201.43,37.87-683.6,17.2-392.44-14.83-473,98.1-976.63-24.93-280.69-70.57-441.12-135.34-659.21-87.47-226,60.1-409.5,234.22-708.07,406.72-398.84,223.89-560.54,178.91-830.13,131.16-391.63-73.62-563.85-230.13-879-380.36-435.74-199.86-611-59.75-1123.12-62.32" transform="translate(747.36 -474.66)"/><path class="cls-59" d="M5129.86,1097c-253.66,17.59-219.85,38.38-683.6,14.6-416.65-19.47-425.26,90.79-1001.07-37.7-265.46-60.36-450-111.1-683.64-32.47-358.16,134.92-780.91,573.63-1294,527.67-276.75-28.09-405.11-43.22-659.23-169.63-264.94-135.68-432.87-266.23-683.63-320.9-284.12-53.6-458.38,20.9-854.55,18.43" transform="translate(747.36 -474.66)"/><path class="cls-60" d="M5129.86,1097c-149.42,10.16-218.06,26.15-415,24.68-199.38-3.35-308-21.79-463.9-16.39-135.86,7.51-212.82,28.48-415.08,17.12-564.16-39.64-746.65-251.31-1294,51.52-507.22,285.32-756,460.82-1367.26,368.71C651.12,1452.64,458.12,1076.37-95,1066.1c-232.72-.34-319.38,33.22-634.81,30.91" transform="translate(747.36 -474.66)"/><path class="cls-61" d="M5129.86,1097c-242.25,16.14-255,38.59-683.6,9.4-330.66-21.4-311.08,24.71-610.42,4.12-185.77-15.1-307-43.81-488.3-70.26-739.29-101.7-889.3,365.14-1684.67,509.77-131,21.26-443.26,31.29-659.22-32-416.74-133.44-597.44-417.62-1074.28-444.3-229.17-8.63-338.5,25.92-659.23,23.22" transform="translate(747.36 -474.66)"/><path class="cls-62" d="M5129.86,1097c-260.94,17-262.67,38.68-708,5-308-21.35-297.23,23.27-610.38-5.62-450.7-46.07-659.69-151.48-1098.72,42.72C2435.8,1265.85,2109.78,1471,1614,1550.14,609.16,1690.66,640.5,1096.69-143.88,1078.09c-210.86-1.92-288.09,21.43-586,18.92" transform="translate(747.36 -474.66)"/><path class="cls-63" d="M5129.86,1097c-155.14,9.81-237.27,25.87-439.47,20.42-200.35-7.33-304.92-28.35-463.91-26.76-127.57,3.48-201,15.51-415-6.64-189-21.11-315.12-48.09-488.34-57-593.72-21.34-707.54,325.2-1684.66,510-124.55,22.21-361.06,45-488.31,37.81C662,1533.06,476.27,1129.68-95,1086.33c-217.79-12.84-319.2,13.63-634.81,10.68" transform="translate(747.36 -474.66)"/><path class="cls-64" d="M5129.86,1097c-290.55,17.31-289.59,36.69-708-1.63-322.26-28.58-280,13.91-610.38-24.19-194.15-23.65-316.51-48.69-488.34-50.93-561.22,3-667.77,352.86-1806.73,525.56-292.27,41.58-428.78,71.35-683.64-41.57-407.88-192-508-413.27-1074.28-417.41-185,.6-230.35,12.67-488.32,10.17" transform="translate(747.36 -474.66)"/><path class="cls-65" d="M5129.86,1097c-202.37,11.34-304.7,34.12-634.77,2.15-435.3-43.49-333.4,3.67-683.64-40.8-182.73-24.1-301.31-46.38-463.91-45.48-463.63,11.8-578.09,255.18-1269.6,411.12-.48.11-561.11,112.56-561.56,112.64-289.81,52.89-423.13,96.28-683.64-16.08-395.5-182.31-496.9-408.7-1049.87-429.31-181.74-4.51-238.69,8.51-512.73,5.76" transform="translate(747.36 -474.66)"/><path class="cls-66" d="M5129.86,1097c-200,10.5-312.59,32.69-634.77-.83-444.3-48.19-324.94-.93-683.64-50.66-194.41-27.93-321.76-49.4-488.34-38.78-443.36,38.91-519.34,284.56-1245.17,414.31-333.19,57.74-206.41,24.83-634.81,123-253.93,59.42-385,94.53-634.81-18.24C427.19,1342.23,318.59,1118-241.54,1094.45c-172.58-5.14-218.88,5.36-488.32,2.56" transform="translate(747.36 -474.66)"/><path class="cls-67" d="M5129.86,1097c-243.73,11.94-329.55,30.06-634.77-3.8-474.28-54.46-312.05-6-659.25-56.86-184-27.92-305.33-49.09-463.86-40.74-465.14,35.77-518,307.08-1220.8,412.43-200.52,28.66-311.29,33.76-488.31,73.1-351.44,82.53-446.8,149.43-659.22,122C609.26,1535.61,466.33,1216-46.22,1120.25c-229.74-39-358.56-19.78-683.64-23.24" transform="translate(747.36 -474.66)"/><path class="cls-68" d="M5129.86,1097c-206.95,9.21-325.64,29.44-634.77-7-545.71-66.72-226.45,2.25-756.9-81.78-840.2-129.47-691.55,312.38-1611.43,401-188.9,17.27-301.81,21.07-463.89,58-311.22,76.33-418.7,161.82-634.81,149.75C642.58,1578.42,476.5,1242.63-21.81,1132.31c-239-49-369.4-32-708.05-35.3" transform="translate(747.36 -474.66)"/><path class="cls-69" d="M5129.86,1097c-206.86,8-331,27.07-634.77-10.67-531.84-68.56-263.3-6.48-732.47-87.08-547.26-90.62-636.36,55-1001.07,252.52C2365.2,1457,2072.12,1372.17,1711.7,1440.21c-288.54,60.68-416.28,169.38-634.8,184.07-249.16,5.57-420.87-136.35-659.23-293.45C26.27,1077.6-223.08,1101.59-729.86,1097" transform="translate(747.36 -474.66)"/><path class="cls-70" d="M5129.86,1097c-205.77,6.67-335.81,24.71-634.77-14.34-554.43-75.29-240.48-8.21-732.47-96.24-579.72-100.16-685.36,111-1025.46,290.37C2345.29,1470.73,2056,1351.44,1687.29,1429c-269.32,63.6-393.46,178.47-610.39,200.9-239.08,13.54-403.61-114.37-634.81-270.82C19.06,1076.41-250.67,1101-729.86,1097" transform="translate(747.36 -474.66)"/><path class="cls-71" d="M5129.86,1097c-240.73,6.37-349.43,21.09-634.77-18-616.57-87.91-217.12-8.8-732.47-105.41C3204.15,873,3087.81,1089.54,2761.55,1276.09c-385.79,207.24-679.37,64.2-1049.85,131.48-262.65,55.31-393,184-610.39,224.61-250.38,35-430.23-103.39-659.22-260.88C22.86,1087.16-255.43,1100.32-729.86,1097" transform="translate(747.36 -474.66)"/><path class="cls-72" d="M5129.86,1097c-223.3,4.55-347.07,19.62-634.77-21.67-130.65-19.51-166.54-27.8-268.61-39.48C3777,989.1,3627.74,892,3347.54,952.28c-272.22,68.66-395.79,231.94-610.38,349.31-381.74,192.43-678.92,16.65-1049.87,94.81-257.35,63-384.7,205.13-610.39,244.83-387.28,48.54-574.4-319.78-1049.87-468-279-83.33-434.81-74.31-756.89-76.17" transform="translate(747.36 -474.66)"/><path class="cls-73" d="M5129.86,1097c-244.88,3.29-359.33,15.57-634.77-25.53-741.22-115.32-193.54-12.63-732.47-122.94-576.33-112-702.83,183.16-1025.46,362.33-368.87,187.3-661.47-.23-1025.46,63.3-258.23,54.41-384.07,206.38-610.39,265.65-231.24,48.86-401.51-65.47-586-194C67.57,1131.49-122.51,1100.28-729.86,1097" transform="translate(747.36 -474.66)"/><path class="cls-74" d="M5129.86,1097c-221.72,1.12-355.3,13.35-634.77-29.75-788.22-126.57-250.14-27.37-732.47-129.83-573.11-115.39-713.25,201.75-1025.46,377-375.8,191.52-677.27-32.05-1049.87,46.41-253.21,63.61-378.42,227.41-610.39,284.4-378.32,72.69-579.19-296.28-1025.46-451.75-297.15-100-434.87-95.08-781.3-96.44" transform="translate(747.36 -474.66)"/><path class="cls-75" d="M5129.86,1097c-300.74-1.06-472.1,26.51-1367.24-170.68C3187.7,806.6,3054.13,1138.18,2737.16,1317.9c-364.57,186.59-659.2-42.6-1025.46,19.25-257.73,54.23-378,224.08-610.39,301.44-232,65-402.35-46.88-586-175.12C86.28,1160.2-113.6,1098.27-729.86,1097" transform="translate(747.36 -474.66)"/><path class="cls-76" d="M5129.86,1097c-411.45-5-425.72,20.78-1391.67-187-569.45-114.09-702.18,257.9-1025.46,424-363.27,166.16-659.74-87.11-1025.44-10.21-250.53,64.33-373.37,247.38-610.39,321.87C696.9,1743.73,513,1370.36,27,1196c-290.17-101.2-426.7-99-756.89-99" transform="translate(747.36 -474.66)"/><path class="cls-77" d="M5129.86,1097c-650.64-13.32-494.42-28-927.77-95.19-397.66-60.2-565.52-183.8-854.55-98.17-360.56,122.93-461.6,435.46-805.72,483.69-301,29.18-532.34-135.76-830.12-87.21-337,70.82-482.49,406.27-830.13,361.57-291.24-54.15-449.9-306.93-830.13-451.34-306-113.27-441.53-114.28-781.3-113.35" transform="translate(747.36 -474.66)"/><path class="cls-78" d="M5129.86,1097c-647.73-19.33-486.84-29.34-927.77-101.17-394.77-63.16-565.81-190.16-854.55-101.69-365.73,128.86-460.29,449.5-805.72,492-308.49,24.06-549.19-164.1-854.53-100-326,85.38-476.72,433.59-830.13,375.11C566.35,1596.48,436,1361.31,27,1205.83-265.55,1097.25-401.86,1095.34-729.86,1097" transform="translate(747.36 -474.66)"/><path class="cls-79" d="M5129.86,1097c-660.09-26.68-471.62-30.84-976.59-114.74-338.93-59-534.77-193.44-830.16-88.41-362.87,146.28-450.58,465.69-805.68,487.8-300.63,5.62-533.67-177.76-830.14-115.61-326.45,86-475.49,447.15-830.13,396-286.11-58-423-295.21-830.13-453.13C-265.9,1097.75-400.18,1094.36-729.86,1097" transform="translate(747.36 -474.66)"/><path class="cls-80" d="M5129.86,1097c-665.73-34-464.15-32.7-976.59-120.51-338.64-60.94-534.56-197.61-830.16-91.55-365,148.52-451.46,473.78-805.68,490.31-299.89.52-533.58-191.39-830.14-129.31-326.71,86.59-474.22,460.66-830.13,416.92-292.91-53.54-406.58-286.59-854.55-460.31C-276.45,1096.91-415.26,1093.3-729.86,1097" transform="translate(747.36 -474.66)"/><path class="cls-81" d="M5129.86,1097c-655.21-40.44-469.18-36-976.59-126.27C3815,907.81,3618.73,769,3323.11,876.05c-366.75,150.64-452.32,481.83-805.68,492.8-299.87-4.58-533.25-205-830.14-143-318.52,84.93-462.64,453.55-805.72,440.3-291.1-29.59-434.13-281.35-854.54-451-294-116.44-427-123-756.89-118.11" transform="translate(747.36 -474.66)"/><path class="cls-82" d="M5129.86,1097c-573.76-41.48-407-22.77-1001-136.73-325-66.83-530.93-207-830.11-83-362.28,167.56-442.9,496.06-805.73,484.41-300.56-22.87-534.45-228.65-830.12-149.36-309.92,102.34-457.61,480.1-805.71,452.17C574.67,1624.09,442.32,1389,27,1218.22-267.13,1099.29-398.29,1091.11-729.86,1097" transform="translate(747.36 -474.66)"/><path class="cls-83" d="M5129.86,1097c-368.82-30.82-386.7-13.46-1025.42-147.14-176.07-39.6-278.08-86.73-439.51-117.57C3121,742.58,2975.7,1240.77,2639.51,1340.14,2277.72,1423,1981.38,1063,1614,1209.55c-233.06,108.76-359.44,351.63-610.39,438.08C771.26,1712,607.74,1575.58,368.84,1406.9c-138.77-96.52-196.92-128.19-390.65-206.28-267.24-104.92-404-110-708.05-103.61" transform="translate(747.36 -474.66)"/><path class="cls-84" d="M5129.86,1097c-344.63-33-387.85-18-1025.42-151.55-176.85-39.8-277.49-86.64-439.51-118.15-546.65-92.24-692.16,406.13-1025.42,502-361.13,79.6-658-288.8-1025.47-141.13-233.78,110-358.73,358.42-610.39,452.11-238.59,72.55-412.24-74.91-634.81-231.61-139.72-97-197.21-128.32-390.65-207.27C-288,1095.57-423.6,1089.61-729.86,1097" transform="translate(747.36 -474.66)"/><path class="cls-85" d="M5129.86,1097c-398.83-43.11-365.07-24-830.12-118.61C4180,954.78,4166.53,955,4080,935.55c-171.9-41.55-280.24-90-439.47-117.43-540.62-77.81-679.55,432.37-1025.46,505.57-360.68,53.19-658.12-319.61-1025.46-145.25-234.94,128.23-369.55,399.62-634.8,469-239.58,46-403.1-117-659.22-286.66-66.47-42.63-156.78-99.42-390.65-187.07-232.39-83.1-373.15-83.91-634.81-76.73" transform="translate(747.36 -474.66)"/><path class="cls-86" d="M5129.86,1097c-538.09-64.74-321.3-23.71-854.51-127.94-537.74-102.22-711.59-266.25-1049.89-86.14-286,166-367.45,380.44-610.38,429.75-229.95,31.63-405.25-102.62-659.23-177.6C1416.26,991.75,1346.9,1556.27,930.4,1646.75,596,1695.92,490.17,1386.38-119.47,1165.32-342.33,1088.73-485,1089.5-729.86,1097" transform="translate(747.36 -474.66)"/><path class="cls-87" d="M5129.86,1097C3818.71,923.25,3918.65,850.29,3616.1,804.25c-524.2-64.14-666.5,432.45-1001,497.41-368.54,47.1-672.8-362.18-1049.87-152.13-230.53,145.61-366.92,426.84-634.81,491.83C702,1680.51,545.46,1530.08,295.6,1364.5c-60.71-39-153.69-98.7-390.65-189.89-233.14-85.67-375.15-86.41-634.81-77.6" transform="translate(747.36 -474.66)"/><path class="cls-88" d="M5129.86,1097c-399.41-57.48-215.51-15.17-854.51-136.61-438.12-81-459.17-134.23-683.64-162.67-520.94-49.44-652.66,453.25-1001.07,494.38-360.76,19.78-657.87-370.42-1025.43-164.23-231.12,147.25-366.33,434.74-634.81,506.71-227.93,44.66-385.21-103.88-634.8-269.12C234.69,1326.28,140.3,1266-95,1174.52c-233.69-86.7-374.13-87.12-634.81-77.52" transform="translate(747.36 -474.66)"/><path class="cls-89" d="M5129.86,1096.91c-9.64-1.48-842.53-114.25-1171.94-208.23C3581,778,3405.67,724.09,3103.37,938.32c-307.76,230.32-370.23,450.78-805.7,276.77-353.33-147.5-545.6-280.82-830.12-36.31C1187.71,1437,1024.88,1762.24,637.42,1584c-249.07-125.31-375.89-303-830.14-443.65C-387,1084.6-521,1088.74-729.86,1097" transform="translate(747.36 -474.66)"/><path class="cls-90" d="M5129.86,1096.85c-172.45-28.45-284.08-42-488.3-76.76-218.24-37.87-234-45.36-463.9-83.51-420.57-71.88-646.89-268.26-1025.46-39.4-282,182.72-347.47,372.65-610.38,365.82-360.27-29.66-656.53-412.43-1025.44-146.74-211.11,168-350.86,443.14-610.39,506.9-316.46,54.67-456.9-246.79-1025.46-459.41-222.88-79-362.52-77.22-610.39-66.79" transform="translate(747.36 -474.66)"/><path class="cls-91" d="M5129.86,1096.78c-1029-180.49-983-158.32-1196.33-218.53-240.05-69.07-409-129.53-634.81-58-473.75,171.27-455,599.43-1025.46,348-239.49-108.84-415.23-217.82-634.81-143.52-357.35,147.22-512.4,764.07-1001,553.55C394.92,1463,390.89,1381-21.81,1202c-267.74-113.28-401.85-118.72-708.05-105" transform="translate(747.36 -474.66)"/><path class="cls-92" d="M5129.86,1096.71c-1178.94-219.09-924-141.72-1294-248.05-219.84-62.56-378.12-95.83-586-15.08-181.61,78.46-284.89,189.2-415.08,296C2395.15,1469.76,2061.74,827.74,1614,1012.31,1260.87,1185,1111.41,1794.47,613,1564.18c-187.75-94.61-569.37-424.32-1025.45-468.63-114.19-8.74-199.81-4.19-317.41,1.37" transform="translate(747.36 -474.66)"/><path class="cls-93" d="M5129.86,1096.63C3900.52,857.64,4315,979.81,3787,835.33c-225.36-60.14-380.75-78-585.94,15-194,96.08-278.2,205.94-415.08,302-422.83,264.73-775.07-390.14-1220.78-136.78-168.72,109.63-251.44,270-439.48,447.92-526,467.13-753.83-341.58-1611.43-372.84-89.73-1.79-146.69,1.42-244.16,6.28" transform="translate(747.36 -474.66)"/><path class="cls-94" d="M5129.86,1096.54c-320.08-65.15-669.35-132.5-952.2-170.6-509.89-71.38-734.69-322.06-1245.2,96.62-135.93,113.74-223.28,199.36-415,175-151.77-27.23-254-94.07-439.49-181.81-438.41-200.13-564.89-9.62-830.13,301.78-270.93,311-436.94,373.78-781.3,156.62-603-390.15-784-398.82-1196.37-377.31" transform="translate(747.36 -474.66)"/><path class="cls-95" d="M5129.86,1096.45C4295.07,919.72,4286.15,944.25,4080,909.69c-387.72-71.19-631.45-238.44-1025.46,11.07-246.63,165.43-315.84,326.44-610.38,242.81-232.1-75.3-402-227.2-634.81-252-467.33-24.7-575.55,685.1-1025.45,684C481.55,1574,290.24,1257-241.54,1119.76c-176.24-41-300.56-33-488.32-22.9" transform="translate(747.36 -474.66)"/><path class="cls-96" d="M5129.86,1096.36c-954.83-212-851.67-142.88-1147.5-206.44-340.92-76.95-545.31-170.57-854.55-19.14-331.78,175.06-371.53,415.05-781.31,237.66-307.56-140.55-540.53-340-830.12-127.33-267.4,219.5-441.91,687.25-830.13,592.57C432.78,1497.26,319,1310-143.88,1146.84c-216.69-71.41-357.13-62.84-586-50" transform="translate(747.36 -474.66)"/><path class="cls-97" d="M5129.86,1096.27c-891-206.44-817-146.78-1098.68-196.44C3709.07,838.6,3485.92,725.24,3176.63,843c-371.43,156-394.41,428.44-805.72,257.8C2064.76,965,1831.75,751.4,1540.79,940.44c-277.92,204.41-444.71,696.86-830.13,633.29-259.46-58.85-382.38-262.9-854.54-428.63-216.7-71-357.38-61.66-586-48.27" transform="translate(747.36 -474.66)"/><path class="cls-98" d="M5129.86,1096.2C4308.24,900.94,4364.54,945.53,4080,907.85,3747.27,858.74,3530,739.44,3225.46,823c-324.85,101.57-377.53,296.56-610.38,316.33-229.42,3.29-406-164.19-659.23-259.7-545-186.44-615.11,445-1025.45,657.49C606.81,1679.27,456.24,1375.85-95,1160.57c-235.78-87.31-375.25-79.61-634.81-63.75" transform="translate(747.36 -474.66)"/><path class="cls-99" d="M5129.86,1096.15C4621,971.77,4610.57,957.47,4128.83,913.7c-180.43-18.67-284.06-51.87-463.9-88.37-628.46-121.06-736.44,232.87-1001,293.38C2304.46,1172.44,1997.59,700.4,1614,855.46c-251.51,121.36-365.38,455.12-634.81,642.25-211.22,130.48-364.68,56-586-84.86-561.43-361.06-782.35-337.72-1123.12-316" transform="translate(747.36 -474.66)"/><path class="cls-100" d="M5129.86,1096.1c-438.65-110.32-533.2-150.4-976.59-180.77-352.15-27.08-559.19-141.47-854.55-107.89-431.36,63-454.29,354.67-781.29,291.6-295.15-72.41-527.94-344.76-830.14-289C1345,897.12,1231.65,1395.2,881.57,1536.5c-278.2,90.34-442.42-141.71-830.13-319.33-309.26-139.53-427.13-143.81-781.3-120.36" transform="translate(747.36 -474.66)"/><path class="cls-101" d="M5129.86,1096c-254-65.59-466.26-135.75-756.86-166.7-311-29.89-185.08,11.86-683.64-88.72-137.5-27-249.38-44.72-390.64-32.25-319.16,38-416.32,204.83-586,269C2361.34,1179.84,2067.9,719.17,1687.29,788.8c-291.15,73.61-378,396.51-659.23,646.54-349.8,285.43-534.23-25.95-1025.45-242.87C-281.9,1070-411.67,1075.14-729.86,1096.81" transform="translate(747.36 -474.66)"/><path class="cls-102" d="M5129.86,1096c-251.37-66.66-453.37-137.2-732.47-167.54-281.06-27.45-232.11,11.66-708-82.66-137.13-26.44-249.61-45.35-390.64-36.49-325.77,30-414.75,191.05-586,254-351,98.6-644.3-364.86-1025.44-295.76-283,71.08-362.89,365-634.81,632.21C691.08,1729.46,499.13,1412.39,27,1200.36-270,1069.62-393.46,1073-729.86,1096.8" transform="translate(747.36 -474.66)"/><path class="cls-103" d="M5129.86,1096c-256.08-69.36-453.65-142.49-732.47-170.73-250.51-22.25-270.88,7.89-610.38-55C3583.4,831.45,3460.7,805,3298.72,811c-351.25,22.83-420.67,194.1-610.38,245.39-350.35,65.08-646.4-397.36-1025.47-302.54-276.34,89.19-360.59,399.54-634.81,655.36-351.33,301.93-536.5-8.83-1025.45-223-282.57-120.45-411.93-113.1-732.47-89.48" transform="translate(747.36 -474.66)"/><path class="cls-104" d="M5129.86,1096c-352.75-97.32-525.58-175.72-903.38-181.35-451.72-4.32-605.33-97.85-903.37-101.4-480.29,5.79-473.53,300.91-805.68,223-293.41-84-527-361.22-830.14-306.79-355.59,88.66-467.14,631.89-830.13,777C587.67,1592.53,425.35,1373.49,51.44,1204c-307.67-136.89-425.5-134.52-781.3-107.16" transform="translate(747.36 -474.66)"/><path class="cls-105" d="M5129.86,1096c-253-71-429.61-142.18-683.6-172-249.53-25.44-306.38,9.7-610.42-34.8-200.82-31.14-319.17-62.5-488.3-72-362.79-12.82-447.22,129.52-610.38,198.59-349.85,117.53-641.06-352-1025.46-309-290.1,51.89-363.6,328.9-634.8,628.85C699.82,1727.49,500.07,1398.49,27,1189.24c-297.37-128.5-423.72-119.1-756.89-92.43" transform="translate(747.36 -474.66)"/><path class="cls-106" d="M5129.86,1096c-269.69-77-443.38-152.18-708-177.59C4172.63,898.6,4119.17,937,3787,887.12c-194.62-30.65-304.45-58.26-463.9-67.63-349.12-13.45-427.28,118.23-586,183.7C2387.48,1117,2096.72,645.73,1711.7,688.52c-291,51.82-363.67,329.24-634.8,634-375,396.44-579.66,73.92-1025.46-126.38-312.87-137.64-432.12-128.21-781.3-99.3" transform="translate(747.36 -474.66)"/><path class="cls-107" d="M5129.86,1096c-274.54-79.69-443.85-156.94-708-180.69-242-17.56-310.25,22.27-634.82-22.6-198.8-29.21-320.46-61-488.29-71.69-358.09-15.57-411.25,122.18-586,177.19-348.68,79.65-641.87-391.77-1025.44-323.68-287.45,71-358.74,364.23-634.81,661C687.34,1702.3,492.63,1385.19,27,1181.5c-296.42-126.28-423-113.46-756.89-84.68" transform="translate(747.36 -474.66)"/><path class="cls-108" d="M5129.86,1096.1c-272.7-80.13-431.73-155.26-683.6-181.43-247.12-21-321.19,23.35-634.81-13.24-195.71-24.78-317.36-57.59-488.34-75.46-363.09-31.92-423.47,89.12-586,152.75C2379.81,1087.63,2082,588.36,1687.29,658.47c-288.77,71.33-357,362.78-634.81,665.42C686.58,1696.58,491.35,1378.71,27,1177.16c-296-125-423.77-110.33-756.89-80.33" transform="translate(747.36 -474.66)"/><path class="cls-109" d="M5129.86,1096.19C4785.39,994,4611,894.81,4250.92,908.75,3769.34,932.49,3752.83,893.12,3372,836c-545.66-75.65-490.24,173.51-781.34,145-297.7-48.54-536.49-358.88-854.52-343.75-386.27,43.13-471.35,570.57-830.13,798.19-288.81,159.35-470.9-79.39-830.13-241.82-325.92-143.7-442.06-130.48-805.72-96.81" transform="translate(747.36 -474.66)"/><path class="cls-110" d="M5129.86,1096.27C4778.4,991.2,4609.39,889.9,4250.92,907.72c-496.68,30.33-501.66-7.63-903.38-71.05-542.08-79.56-474.06,180.24-781.29,127.77-298.78-68.77-537.78-374.28-854.55-338.57-376.74,67.49-466,609.58-830.13,814.06C600,1574.69,429.35,1343.3,51.44,1178c-310.55-132.28-431.43-114.88-781.3-81.15" transform="translate(747.36 -474.66)"/><path class="cls-111" d="M5129.86,1096.36c-278.39-84-422.88-159.45-659.21-187-238.88-22.65-324.63,26.21-610.38,11.43-176.8-11.56-292.05-38.53-463.9-71.18-349.12-64.5-424.36-22.92-585.95,64C2442.37,1097.52,2179.54,635.68,1785,608c-306.78-3.53-409,259-634.81,564.78-567.53,740.71-767.55-135-1611.42-100.68-88.16,4.95-109.24,8.79-268.58,24.74" transform="translate(747.36 -474.66)"/><path class="cls-112" d="M5129.86,1096.45c-364.29-110.79-522.7-216.37-878.94-190.8-364.65,30.86-398.47,41.14-878.94-56C3238.58,823.41,3114,802,2981.29,829.09,2810.57,875,2777.83,966.64,2590.64,943.77c-289.19-53.9-519.44-347-830.11-350.2C1361.81,613.93,1285,1126.45,930.4,1391.51,634.74,1587.93,444.32,1347,100.28,1189.58c-336.44-148.93-446.34-132.58-830.14-92.7" transform="translate(747.36 -474.66)"/><path class="cls-113" d="M5129.86,1096.55C4762.74,984.55,4605.8,876,4250.92,904.7c-365.43,34.48-428,47.48-878.94-50.82-132-28.16-258.22-53.88-390.69-30.58C2810.67,864.47,2779.1,957,2590.64,932.66,2302,877,2071.36,584.38,1760.53,581.85,1361.05,602.91,1285,1115.42,930.4,1382.58,634.49,1581,443.93,1340,100.28,1184c-337.45-148-448.28-128.5-830.14-87.14" transform="translate(747.36 -474.66)"/><path class="cls-114" d="M5129.86,1096.65c-358.53-109.18-518.94-219.05-854.51-195-260.68,23.12-396.85,70.7-830.16-26.86-165.54-38-314.5-78.88-463.9-56.55-174.95,37.78-210.68,140.06-415,99.54-289.13-74.11-520.46-361.34-830.13-344.27C1345,619.73,1266,1148.15,906,1390.55c-290.28,171.18-474.44-68.8-830.13-223.07-325.54-136.83-441.08-111.85-805.72-70.55" transform="translate(747.36 -474.66)"/><path class="cls-115" d="M5129.86,1096.76c-376.83-115-528.37-227.55-878.94-193.85-315.32,35.1-435.44,65.37-830.12-29.07-163.49-39.69-316.34-84.14-463.9-56-159.69,42-206.32,138-415.08,83.39C2251.92,810,2019.9,529.75,1711.7,566.8c-381,70.58-465,613.46-830.13,829.82-284,144.53-458.88-91.09-830.13-245.12C-260.7,1026.12-382.89,1056-729.86,1097" transform="translate(747.36 -474.66)"/><path class="cls-116" d="M5129.86,1096.86C4750.42,981.5,4600.78,865.69,4250.92,902c-283.9,34-427.87,74-805.73-17.44-189.28-47.22-302.1-84.07-439.47-78.86-189.46,18.34-212.27,126.54-415.08,96.78-288.55-60.4-518.16-349.6-830.11-349.73-411.56,24.59-488,572.1-854.54,821-290.84,173.16-475.54-67.68-830.13-218-325.7-133.45-440.57-103.74-805.72-58.81" transform="translate(747.36 -474.66)"/><path class="cls-117" d="M5129.86,1097c-373.09-113.06-522.15-229.17-854.51-198.56-234.74,26.16-419,90.37-805.72-2.8-202.34-50.74-317.9-95.92-463.91-94.32-185.08,13-200.24,111.28-390.64,94.89C2326.09,852,2100.58,560.51,1785,543c-421.46,1-491.77,528.2-854.55,805.69-296.78,202.36-488.75-39.84-830.12-188.53C-244.84,1015.59-363.4,1050.1-729.86,1097" transform="translate(747.36 -474.66)"/><path class="cls-118" d="M5129.86,1097c-309.72-92.61-440.61-181.31-683.6-203-325.13-19.76-491.32,130.54-1001.07-.12-357.62-95.32-415-138.94-634.77-39.56-378.71,161-642.93-320.42-1049.89-318.6C1444,556,1367.41,830.6,1101.31,1170,558.59,1829.25,373.92,957.65-510.11,1066.07c-101.76,13.51-95,14.52-219.75,30.94" transform="translate(747.36 -474.66)"/><path class="cls-119" d="M5129.86,1097C4751.31,986.18,4601,857.73,4250.92,899.58c-277.65,38.24-440.86,93-805.73-1.72-202.72-55-320.9-104.82-463.9-100.68-169.28,16.7-196.53,112.28-390.65,80.68-295.72-66.22-533.38-367.27-854.52-346.21-400.86,51-484.93,611.88-854.55,831.65-285.52,146-460.81-91.4-830.13-235.77-320-120.37-447.77-76.07-781.3-30.52" transform="translate(747.36 -474.66)"/><path class="cls-120" d="M5129.86,1097c-295.94-84.34-423.16-173.4-659.21-202.42-340-32-519,140.57-1025.46,7.27-353-97.4-411.49-153.6-634.77-57.53C2431.32,998,2168.48,521,1760.53,524.4c-316.78,21.29-392.56,293.18-659.22,630.66-545.8,657.8-717.39-217-1611.42-92.09-102.24,15.26-100.34,17.15-219.75,34" transform="translate(747.36 -474.66)"/><path class="cls-121" d="M5129.86,1097c-288.76-80.33-404.62-164.45-634.77-200.14-351.31-44.19-534.89,139.22-1025.46,15.51C3269.32,859,3154.78,803,3005.72,792.75c-84.3-.8-117.66,14-195.3,46.6-379.21,150-641.61-324.86-1049.89-320.6-316.87,21.86-391.87,291.79-659.22,628.84C555.46,1802.87,384,929-510.11,1061.41c-106.25,16.76-102.9,18.49-219.75,35.6" transform="translate(747.36 -474.66)"/><path class="cls-122" d="M5129.86,1097c-285.64-77.53-403.65-164.27-634.77-200.86-352.66-45.36-540.91,143.68-1025.46,20.31-316.66-85.53-425.15-175-634.82-92.06-74.2,30.29-111.75,44.66-195.3,40.93C2346.11,832,2111,527,1785,512.8c-321.79,4-413.11,274.19-659.22,596.66-555.48,697.57-738-168-1587-57-107.1,15.51-142.1,25.37-268.58,44.51" transform="translate(747.36 -474.66)"/><path class="cls-123" d="M5129.86,1097c-291-76.66-419.8-172.26-659.21-204-233-23.89-337.18,43.28-610.38,65.14C3345.4,989.84,3142.8,704.64,2834.81,822.91,2612.08,911.4,2514,849.56,2200,663c-120.22-70.48-240.72-138.42-390.65-153-329.18-14.32-436.43,259.86-659.22,560.41-570.05,741.9-753.67-126.26-1587-23.38-117.48,16.41-156.31,28.61-293,50" transform="translate(747.36 -474.66)"/><path class="cls-124" d="M5129.86,1097c-291.53-74.18-417.89-170.36-659.21-203.56-233.22-25.05-336.91,41.95-610.38,65.8-517.69,35.82-717.72-250.4-1025.46-135.69C2611.56,909.9,2513.89,847.2,2200,660.45c-119.93-70.36-240.53-138.35-390.65-153.05-316.56-14.2-426.79,236.89-634.8,523.41-586.36,784.19-767.32-83.19-1587,10.66-126.16,16.74-174.16,32.41-317.41,55.54" transform="translate(747.36 -474.66)"/><path class="cls-125" d="M5129.86,1097c-275.06-67.57-404-159.85-634.77-199.6-246.75-35.18-352.08,36.21-634.82,63-523.58,40.13-716.56-247.8-1025.46-136.17-223.46,84-320.25,21-634.8-166.28-120.18-70.58-240.67-138.3-390.65-153.14-318-14.65-430,239.66-634.8,519.36-587.2,778.54-765.84-86.82-1587,14.77-128.12,18.14-175,34.34-317.41,58.09" transform="translate(747.36 -474.66)"/><path class="cls-126" d="M5129.86,1097c-280.57-66.41-400.75-157.52-634.77-199-246.33-36.32-351.54,34.63-634.82,63.51-525.57,44.33-718.08-244.27-1025.46-136.65C2610,907,2513.25,842.15,2200,655.4c-120-70.54-240.41-138.19-390.65-153.21-317.23-15-428.3,235.7-634.8,515.3-594.29,781-760.58-105.67-1611.43,22.56-120.67,20.13-163.18,34.64-293,57" transform="translate(747.36 -474.66)"/><path class="cls-127" d="M5129.86,1097c-284.08-64.73-418.14-165.38-659.21-202.14-242.55-29.64-350.15,43.88-634.81,70-526.9,38.6-683.77-251.86-1025.42-130.72C2440.38,958.27,2185.84,517.85,1785,498.4c-306.56,1.83-399,237.08-634.81,544.24C573.2,1767.31,401.67,890.47-461.28,1042c-124,23.49-142.66,32.7-268.58,55" transform="translate(747.36 -474.66)"/><path class="cls-128" d="M5129.86,1097c-282.67-61.61-418.29-162.59-659.21-200.69-233.23-29.89-335.45,35.25-610.38,67.15-529.11,52.44-719.13-233.16-1025.46-132.66-225.2,77.35-321.15,11.08-634.8-177.53-120.37-71.3-240.36-139-390.65-155-314.41-16.92-422.85,223.81-634.8,505.13-595,766.34-760.14-111.75-1611.43,32-130.26,24-159.29,37.27-293,61.58" transform="translate(747.36 -474.66)"/><path class="cls-129" d="M5129.86,1097c-280.66-58.24-398-148.87-634.77-194.63-364.42-60-562.68,140.72-1025.46,42.85C3274,900.09,3156.94,839.32,3005.72,818c-84.66-7.51-116.89,2.9-195.3,29C2441.55,962.26,2186.07,521,1785,496.3c-303.84-2.31-394.36,224.58-634.81,530.34-577,707.48-749.87-155.46-1611.42,11.25-124.17,25.7-149.15,36.89-268.58,59.12" transform="translate(747.36 -474.66)"/><path class="cls-130" d="M5129.86,1097c-274.65-54.13-401.35-146-634.77-192.44-247-42.14-350,23.44-634.82,60.19-536.63,61-718.45-211.91-1025.46-117.8-223.35,71.63-318.72,5-634.8-189.36-598.86-362.8-719.19-66.07-1025.45,330.15-595.8,748-760.27-115.81-1611.43,43.15-137.72,27.86-159.28,40.62-293,66.11" transform="translate(747.36 -474.66)"/><path class="cls-131" d="M5129.86,1097c-291.78-54.46-412.61-150.93-659.21-194.57-362.23-53.75-566.95,150-1049.85,42.29-189.8-45.51-297.7-97.8-439.51-110.59-82.21-2.59-101.83,8.49-195.3,35.51-351.8,84.93-626.53-365.89-1025.46-375.3-298,9.49-375.2,234.91-634.8,545-564.19,645.2-729.17-198.27-1611.43-.06-118.59,28-138.69,37.16-244.16,57.74" transform="translate(747.36 -474.66)"/><path class="cls-132" d="M5129.86,1097c-282.86-49.84-395.12-137.6-634.77-188-246.07-45.08-347.38,16.28-634.82,57.1-543,69.55-718.79-190.39-1025.46-102.94-225.27,67.13-322.86-5.21-634.8-201.2-119.17-73.79-239.49-145-390.65-165.6-308.26-26.2-412.67,195.81-634.8,475.75-596.31,729-761.26-119.57-1611.43,54.29-140.36,30.87-163.25,44.76-293,70.65" transform="translate(747.36 -474.66)"/><path class="cls-133" d="M5129.86,1097c-283.85-46.86-394.65-132.81-634.77-184.7-255.51-48.43-357.74,17.08-659.25,58-533.62,64.93-689.3-182.76-1025.42-86.74-364.49,96.29-626-350.15-1025.47-389.24-298.51-13.31-386.8,199.31-634.81,498-580.23,673.54-747-159.9-1611.42,37.57-128.46,31-155.12,44.12-268.58,67.13" transform="translate(747.36 -474.66)"/><path class="cls-134" d="M5129.86,1097c-296.14-45.55-411.87-137-659.21-185.5-370.29-62.79-570.24,134.94-1049.85,54.86-190.69-35-296.14-80.72-439.51-92-85.4-2.33-105.73,9.06-195.3,31.46C2436.54,976,2159.28,517.45,1760.53,493.4c-293.51-1.51-374.08,218.66-634.8,516.44-564.62,617.47-734.29-194.65-1611.43,24.4-123.94,32.33-140.36,41.42-244.16,62.77" transform="translate(747.36 -474.66)"/><path class="cls-135" d="M5129.86,1097c-287.74-41-391.26-121.4-634.77-176.73-254-51.44-353.72,6.22-659.25,52.67-545.11,76.53-684.54-145.89-1025.42-57.11-373.22,88.08-639.13-391.07-1049.89-422.29-291.75-6.13-374.09,212.61-634.8,505.47-566.28,609.23-732.1-192.95-1611.43,33.67-121.81,32.75-142.9,43.22-244.16,64.32" transform="translate(747.36 -474.66)"/><path class="cls-136" d="M5129.86,1097c-300.33-39.39-409-125.55-659.21-177.85-373.27-68.81-574.1,121.61-1049.85,64.24-186.88-25.56-296.77-66.15-439.51-75.2-86.84-1.54-104.14,8.95-195.3,29.18-355.64,60.68-642.77-429.63-1049.87-444.58-286.45,5.86-363,233.68-634.81,521.24-548.14,551.72-720.7-213.09-1587,17.1-128.73,35.64-141.71,44.25-244.16,65.87" transform="translate(747.36 -474.66)"/><path class="cls-137" d="M5129.86,1097c-287.32-34.45-392.26-111-634.77-168.76-383.45-82.6-602,109.67-1074.29,63.67-188.1-21.32-295.61-58.8-439.51-66.81-88.9-1.15-106.05,9.5-195.3,28-355.18,55.31-642.36-439.18-1049.87-460.6-284.61,1.38-362.59,227.05-634.81,510.22-548.45,542.89-722.45-209.94-1587,26.81C-615.86,1066.65-628,1075.24-729.86,1097" transform="translate(747.36 -474.66)"/><path class="cls-138" d="M5129.86,1097c-301.95-32.81-410.12-113.85-659.21-169C4088,852,3884.72,1041.8,3396.37,1000.6c-190.31-18.92-299.51-53.36-439.47-54-109.77,4.64-120.61,25.48-219.74,32.31-347.1-3-646.1-503.55-1049.87-485.28-271.5,29.65-354.87,285.71-634.81,542.88-375.4,323.36-575.19,42.28-1001-41.22-365.79-65.48-532.52,48.32-781.3,101.75" transform="translate(747.36 -474.66)"/><path class="cls-139" d="M5129.86,1097c-295.82-28.81-382.51-95.53-634.77-157.84-397.08-90-598.44,93.33-1074.29,75.32-193.44-10.24-290.3-39.44-439.51-44-110.84.59-122.3,17.47-219.74,29.27C2416,1017.11,2115.5,507.36,1711.7,492.53c-263.55,6.32-346.33,220-610.39,484.73C550.69,1502.82,378,779.15-485.7,1027.38c-136,40.5-143.33,47.95-244.16,69.63" transform="translate(747.36 -474.66)"/><path class="cls-140" d="M5129.86,1097c-390.56-33.69-548.93-175-854.51-181.56-261.88,2.55-502.35,118.44-879,110.33-203.72-7.21-319.15-37.62-463.91-29.76-149.05,14.69-199.17,66-390.64-29.89-295.32-161.48-537.18-474.36-854.53-473.5-341,23.2-475.94,517.74-854.55,645.38C554.76,1214.43,392.4,1034,27,978.34c-350.09-47-521.47,68-756.89,118.67" transform="translate(747.36 -474.66)"/><path class="cls-141" d="M5129.86,1097c-303-22.73-367.51-78-634.77-146.35-401.71-95.51-607.21,76.19-1074.29,87.47-191.06,1.94-288.46-19.48-439.51-20-97,2.43-105.52,11.71-195.3,24.66C2434.76,1073,2143.06,551,1736.12,494.56c-286.72-23-371.33,214.44-659.22,479-386.31,335.84-595.06,76-1001,5.68-387.75-60.37-562.8,65.46-805.72,117.76" transform="translate(747.36 -474.66)"/><path class="cls-142" d="M5129.86,1097c-405.37-25.9-555.15-160.71-854.51-174.15-263.56-3.43-512.11,112.85-879,128.1-202.81,5.78-317.48-16.21-463.91-6.54-150.68,15.31-202.63,59.93-390.64-42.12-301.24-177.47-556.13-518.64-879-510-322.24,31.7-455.8,489.53-830.13,614.16C553,1183.07,391.19,1011.39,27,965.79c-351.79-37.85-533.78,83.13-756.89,131.22" transform="translate(747.36 -474.66)"/><path class="cls-143" d="M5129.86,1097c-417.81-22.38-555.93-152.48-854.51-169.29C4002.82,921,3747.62,1043.25,3372,1066.9c-192.75,9.73-298.57-5.71-439.52,4.62-148.95,15.52-204.35,56.82-390.64-48.54-301.84-184.78-557-532.23-879-530.75C1342.33,517,1208.32,966,832.74,1090.6,553.87,1167.16,384.67,1000.21,27,960.22c-352.82-33.13-535.89,89.54-756.89,136.79" transform="translate(747.36 -474.66)"/><path class="cls-144" d="M5129.86,1097c-329.3-14.66-373.38-61.08-659.21-132.84-398.68-94.2-610.5,65-1074.28,116.36-189.9,18.73-292.76,8.73-439.47,17.35-101.1,8.18-120.75,19.45-195.35,21.75C2409,1103.42,2097.69,528.34,1687.29,493,1431.06,488.32,1330,725.12,1052.48,952.6c-380.9,294-583.43,53-1001,4.77-372.5-36.6-550.1,90.83-781.3,139.64" transform="translate(747.36 -474.66)"/><path class="cls-145" d="M5129.86,1097c-348-11.84-391.54-61.16-683.6-131.64-396.12-89-627.28,78.9-1098.72,136.6-194.27,21.57-297.21,13.24-439.47,28.91-105.57,13.82-134.93,24.19-219.73,4.56-350.47-108.19-682.9-683.28-1074.3-639-234,46.25-358.24,312.06-634.81,493.81-201.27,121.66-343.92,106.73-586,36.46C-228.5,843.77-360.69,1020-729.86,1097" transform="translate(747.36 -474.66)"/><path class="cls-146" d="M5129.86,1097c-474.06-11.33-604.21-147.44-903.38-155.3C3950,943.51,3693,1064.17,3347.54,1118.9c-195.95,28.81-291.32,23.61-439.47,40.39-161.84,20.86-218.05,30.32-390.64-87.61-297.69-215.23-564.81-581.86-879-578.28-298.88,27.54-452.24,451.28-830.13,556.24C529.4,1112.81,364.92,962.45,2.61,943.15c-338-11.54-522.26,110.57-732.47,153.86" transform="translate(747.36 -474.66)"/><path class="cls-147" d="M5129.86,1097C4647,1091,4552,968.63,4250.92,947.43c-278.83-10.49-538.7,113.67-878.94,183.63-187.92,36.54-290,38.25-439.52,53.8-170.62,19.84-220.05,37.88-390.64-74.72-301.54-213.19-561.17-589.26-879-616.73-306-3.19-453.7,409.49-830.13,533.54C548.93,1106.09,381.6,959.71,27,939.2c-354-14-543.86,114.49-756.89,157.81" transform="translate(747.36 -474.66)"/><path class="cls-148" d="M5129.86,1097c-380.22-2-377-35.88-708-116-402.79-91.57-645.25,78.63-1098.72,177.48-162.63,33.68-276.64,42.69-488.3,66.34-78.48,6.28-117.65.85-195.3-34-346.43-178.29-698.88-770.72-1074.3-686-221.43,69.86-356.35,321.22-634.81,468-227.34,108.65-379.07,58.73-634.8-.87-521.75-116.86-762.66,72.75-1025.46,125" transform="translate(747.36 -474.66)"/><path class="cls-149" d="M5129.86,1097c-346.62.94-322.81-9.38-683.6-102.23-423.47-104.24-636.71,54.36-1098.72,175.84-182.28,46-274.89,53.57-463.9,76.57-82.4,9.74-119.09,12.91-195.3-11.13-344.55-136-689.5-749.82-1074.3-738.19C1385.91,524.42,1256.87,763,979.23,932.49c-373.77,211.3-572.73-12.44-1025.45-1C-357.41,945.71-533.37,1058.94-729.86,1097" transform="translate(747.36 -474.66)"/><path class="cls-150" d="M5129.86,1097c-251.11,2.66-270.27,17-634.77-81.51-204.87-54.46-322.49-77.1-586-11.23-312.29,83.07-623.24,252.63-1098.68,277.27-357.26-2.08-659.77-618.15-1074.3-764.13C1306.79,393.07,1178.93,1077,539.75,1002.74,233,960.34,44.32,845.73-485.7,1023.62c-146,49.92-154.12,56.4-244.16,73.39" transform="translate(747.36 -474.66)"/><path class="cls-151" d="M5129.86,1097c-163,3-227,16.23-415-19.35-188.35-38.58-304.63-87.41-463.9-105.12-412.8-32.25-722.56,238.16-1269.63,318.46-190.67,26.4-248.31,33.56-390.65-57.58C2295.3,1027.34,2034,614.74,1711.7,514.22c-321.33-78.37-467.92,303.91-854.54,447.37C559.87,1058.75,374.84,925.67,27,923.27c-349.7,4.17-546.94,135.2-756.89,173.74" transform="translate(747.36 -474.66)"/><path class="cls-152" d="M5129.86,1097c-243.89,6.39-267.81,32.74-659.21-72.13-201.58-53.46-325.64-76.25-585.94-3.91-312.35,92.16-672.85,305.92-1074.29,315.35-354-13.62-661.14-646-1074.3-810.06-426-142.21-556.26,521.67-1220.78,450.63-317.69-39.65-481.22-131.55-1025.45,56-127.38,44.42-140,49.88-219.75,64.11" transform="translate(747.36 -474.66)"/><path class="cls-153" d="M5129.86,1097c-155.63,5-213.74,22.31-390.65-2.69-180.93-29.14-280.59-72.07-439.47-101.54-452.39-72.29-787.59,250.73-1294,346.11-223.49,38.49-279.28,23-390.64-45.59-288.47-195.68-555.47-626.09-879-760.18C1419.67,422.09,1275.4,752.4,906,916.93c-308.07,124.76-500.5,6-830.13-.7-372-.61-588.43,143.36-805.72,180.78" transform="translate(747.36 -474.66)"/><path class="cls-154" d="M5129.86,1097c-200.56,7.43-275.44,41.3-585.95-36.91-237.56-61.5-355.63-108.58-634.81-34.64-352,100.91-708.48,358.38-1098.68,357.27-351.84-23.91-662.09-664.7-1074.3-841.92-421.48-154.46-553.07,471.5-1220.78,418.12C117.2,920.36,44.46,844.1-558.95,1051.73c-93.9,32.09-111.6,35.46-170.91,45.28" transform="translate(747.36 -474.66)"/><path class="cls-155" d="M5129.86,1097c-201.77,8.52-280.16,48.74-610.38-35.36-224.86-58.84-352.08-105.58-634.77-23.36-346.74,108.07-700.31,373-1074.29,367-351-28.94-661.91-673.13-1074.3-856.86C1318,388.81,1183,995,515.34,950.27c-408-33.94-463-106.68-1074.29,102.4-93.9,31.77-112.16,35-170.91,44.34" transform="translate(747.36 -474.66)"/><path class="cls-156" d="M5129.86,1097c-161.77,7.66-222.42,34.4-415,11.74-184.79-25.64-277.7-69-439.47-98.44-477-72.79-821.2,307.22-1294.06,402.49-191,33.87-263.21,14-390.65-78.22C2299.22,1107,2029.74,672.84,1711.7,546.46c-302-99.37-456.75,204.07-830.13,348.26-310,108.8-504.1,3.46-830.13,13.44-346.2,17.55-568,156.38-781.3,188.85" transform="translate(747.36 -474.66)"/><path class="cls-157" d="M5129.86,1097c-161.42,8.46-208,34.94-390.65,20.38-178.73-18.43-281.58-61.74-439.47-95.32-485-91.78-817.19,283.14-1269.58,403-212.81,50.68-292.21,23.39-390.65-36.61-288.77-195.38-549.87-636.74-879-813C1437.81,421.73,1287.88,717,906,874.74c-313.35,119-513.12,22.86-830.13,29.74C-276.89,919.1-511.8,1065.25-729.86,1097" transform="translate(747.36 -474.66)"/><path class="cls-158" d="M5129.86,1097c-163.28,9-206.13,37.43-390.65,25.39-178.74-16-279.94-58.71-439.47-93.38-491.67-95.64-822.28,290.38-1269.58,412.71-205.51,50.31-288.79,23.87-390.65-39.08-287.72-197-550.25-638.05-879-816.4C1448.52,435.28,1295.38,700,930.4,858,613.55,985.51,410.83,898.45,100.28,901.9c-362,11.08-605,163.91-830.14,195.11" transform="translate(747.36 -474.66)"/><path class="cls-159" d="M5129.86,1097c-162.35,9.36-205.81,39.62-390.65,30.18-178.42-13.55-279.75-56-439.47-91.33-507.45-101-843.1,314.19-1294,426.89-190.33,41.67-273.18,16.66-390.64-64.46-284.84-214.09-557.8-655.37-879-812.42C1432.35,456.23,1276.43,717.34,906,862.05,590.4,975.92,381.23,889.23,75.86,901.14-265.19,921.43-509.07,1068-729.86,1097" transform="translate(747.36 -474.66)"/><path class="cls-160" d="M5129.86,1097c-169.57,10.17-201.55,42-390.65,35-438.06-27.34-536.91-273.66-1196.32,92.63-278.45,156.05-607.08,370-879,218.45-290.16-183.1-564.54-646.79-903.37-833.69-308.77-152.54-464.82,89-830.13,237.61-319.84,121.26-527.34,43.17-830.12,51.5C-242.34,914.72-511.07,1069.83-729.86,1097" transform="translate(747.36 -474.66)"/><path class="cls-161" d="M5129.86,1097c-202.38,12.6-293.28,79.79-610.38,8.26-225-54.08-354.52-118.35-634.77-32.89-394.71,130.93-712.58,468.83-1074.29,436.54C2458.81,1452.65,2126.19,779.76,1711.7,598c-390.19-145.71-542.77,324.06-1220.78,311C306,903.47,194.3,885.91,27,902.42-279.72,939.24-522.68,1072.73-729.86,1097" transform="translate(747.36 -474.66)"/><path class="cls-162" d="M5129.86,1097c-203.33,13.13-295.48,84.54-610.38,15.17-226.11-53.4-354.84-120-634.77-34.21-397.19,132.57-713.84,481.48-1074.29,445.06-350.92-60.3-684.4-729.64-1098.72-913.7C1320.25,460.49,1171,917.78,466.51,903.08c-190.45-5.65-299-19.93-463.9,1.43-292.84,44.08-530.89,170.32-732.47,192.5" transform="translate(747.36 -474.66)"/><path class="cls-163" d="M5129.86,1097c-206.29,13.41-295.92,88.33-610.38,20.67-223.55-51.86-343.44-116.05-610.38-42.57-403.74,123.23-708.41,474-1074.29,456.35-360.71-40.07-675.95-685.37-1098.69-896.79C1338.68,459.19,1180.83,896.81,515.34,900.42c-184.2-1.12-301.82-17.26-463.9-2.18-305.91,35.28-560.61,176-781.3,198.77" transform="translate(747.36 -474.66)"/><path class="cls-164" d="M5129.86,1097c-194.28,12.6-292.19,87-585.95,30.94-235.21-49.4-345-119.79-610.38-55.14-410.13,112.12-703.85,464.78-1074.28,463.93C2492.36,1515.38,2188,896,1760.53,662,1353.4,461,1192.83,884.2,539.75,897.39,346.6,898.85,221,881.06,51.44,898c-303,37.16-557.1,177.34-781.3,199" transform="translate(747.36 -474.66)"/><path class="cls-165" d="M5129.86,1097c-165.11,10.71-199.71,50-390.65,54.9-441.62-1.2-542.47-281.32-1196.32,102.72-289.64,172.08-585.48,392-879,224.87-284.53-181.13-564.7-619.64-903.37-802.42C1457.73,529.5,1290.68,715.85,930.4,834.2,590.55,938.88,366.58,870.68,75.86,895.11c-307.62,32.8-565.74,180.28-805.72,201.9" transform="translate(747.36 -474.66)"/><path class="cls-166" d="M5129.86,1097c-165.24,10.7-199.12,51.25-390.65,58.25-439.76,3.52-543.46-280.89-1196.32,103.73-301.3,179.58-572.61,378.5-854.55,237.45C2405.9,1336,2130.18,905.42,1785,705.17c-308-163.81-476.22,4.75-830.13,121.23-344,107-561.78,45.91-854.54,66.07-321.08,29-571.2,182.9-830.14,204.54" transform="translate(747.36 -474.66)"/><path class="cls-167" d="M5129.86,1097c-195.71,12.64-293.81,96.5-585.95,46-237.08-46.16-354.11-125.4-634.81-50.37-403.9,120.32-691.81,467.44-1049.85,456.42C2490.15,1516.6,2168.58,901,1736.12,695.7,1345,530.58,1178.37,879.51,515.34,889c-188,1-311.39-10.2-463.9,8.15C-233.73,938.3-492,1078.71-729.86,1097" transform="translate(747.36 -474.66)"/><path class="cls-168" d="M5129.86,1097c-197.88,12.51-293.43,98.36-585.95,49.08-236.82-45.18-353.14-125-634.81-50.75-403.73,118.62-692.34,463.53-1049.85,449.28-354.39-34.26-648.68-572.14-1074.3-807.2-416.53-211.14-580,137-1245.2,150.42-198.38,2.23-328.14-10.57-488.31,9.59-279.71,42-540.39,182.38-781.3,199.58" transform="translate(747.36 -474.66)"/><path class="cls-169" d="M5129.86,1097c-198.42,12.2-294.36,99.76-585.95,51.78-236.34-44.23-352-124.41-634.81-51.08-407.27,117.89-690.59,458.36-1049.85,440.67-362.82-38.12-665.22-583.44-1098.72-795C1356,564.22,1198.48,882.79,515.34,887.61c-204,0-331.36-10.44-488.31,14-269.22,48.26-516.4,179.52-756.89,195.42" transform="translate(747.36 -474.66)"/><path class="cls-170" d="M5129.86,1097c-206.12,12.31-301.06,106.74-610.38,50-223.59-45.83-338.51-116.31-610.38-46.92-416.91,118.77-707.64,470.9-1074.29,429.3-347.75-59.72-674.46-597.43-1098.69-778.1C1343.32,601.7,1193.5,889.4,490.92,887c-207.58-1.66-330.7-9.59-488.31,19.58C-254.68,960.05-494.88,1082.75-729.86,1097" transform="translate(747.36 -474.66)"/><path class="cls-171" d="M5129.86,1097c-205.69,11.92-301.13,108.39-610.38,52.78-223.12-45-337.47-115.85-610.38-47.34-417.3,117.06-707.18,465.23-1074.29,420.49C2485.53,1460.5,2164.15,945.11,1736.12,770c-394-144.37-533.16,121-1245.2,116.42C280,884.2,157.26,877.72,2.61,907.24c-257.47,55-491.27,176.44-732.47,189.77" transform="translate(747.36 -474.66)"/><path class="cls-172" d="M5129.86,1097c-206.67,11.64-301.71,109.94-610.38,55.57-223.16-44.29-336.47-115.37-610.38-47.76C3493.31,1219.54,3202,1564.38,2834.81,1516.5c-339-63-651-535.46-1074.28-718.18-400.31-157-550.76,91.72-1245.19,87.77-197.42-2-335.51-9.33-488.31,17C-232.88,954.21-474.55,1084.25-729.86,1097" transform="translate(747.36 -474.66)"/><path class="cls-173" d="M5129.86,1097c-208,11.21-301.65,110-610.38,56.16-223-43.91-335.31-114.48-610.38-48C3494,1217.4,3202.44,1553.6,2834.81,1503.43c-345.49-65.66-666.1-533.87-1098.69-693.66-243.67-80.87-406-24.7-659.22,28.94C586.36,939.08,329.61,842.94,2.61,908.78-246.25,964.56-479,1085.53-729.86,1097" transform="translate(747.36 -474.66)"/><path class="cls-174" d="M5129.86,1097c-209.52,10.75-301.08,110-610.38,56.38-222.25-43.48-334-113.59-610.38-48.22-413.78,109.39-705.14,436.54-1074.29,384-342-66.19-641.37-485.35-1074.28-649.54-248.7-85.9-416-37.89-659.22,7.71-515,93.74-764.81-6.3-1098.7,62.38C-247.49,966.9-473.17,1086.27-729.86,1097" transform="translate(747.36 -474.66)"/><path class="cls-175" d="M5129.86,1097c-204.61,10-295.48,103.74-585.95,60.79-232.57-40-334.12-114.73-610.38-58.29C3525.17,1193.89,3246.13,1500,2883.64,1481,2525,1445.09,2237.92,1042.52,1785,869.1c-260.5-91.88-434.73-47.2-683.64-7.94C597.56,937.9,331.91,841.52,2.61,910.68-249.65,969.43-467,1087-729.86,1097" transform="translate(747.36 -474.66)"/><path class="cls-176" d="M5129.86,1097c-206.31,9.52-295.25,103.6-585.95,61-232.29-39.67-332.85-113.78-610.38-58.36-405.11,91.54-687.68,389.71-1049.89,367.44-356.52-38.44-640.93-415.73-1098.69-577.78-255.46-83.24-433.11-47.32-659.22-17.44C618.57,936.78,349.11,845.37,27,906.39-235.32,962.63-449,1087.42-729.86,1097" transform="translate(747.36 -474.66)"/><path class="cls-177" d="M5129.86,1097c-207.67,9-294.65,103.48-585.95,61.16-232.17-39.33-331.15-112.85-610.38-58.42-412.77,91.15-702.39,393.47-1074.28,350.59-338.8-54.18-626.06-395.24-1074.3-540.85-255.88-76.59-438.78-45.69-659.22-23.11C622.24,935.84,349.81,844.76,27,907.23-236.22,964.8-443.34,1088.36-729.86,1097" transform="translate(747.36 -474.66)"/><path class="cls-178" d="M5129.86,1097c-209.37,8.58-294.59,102-585.95,59.29-232.08-39.53-329.87-111.89-610.38-58.35-410,88.5-700.31,379.89-1074.28,334.9-338.17-54.95-618.55-368.4-1074.3-501.94-265.2-71.61-456.72-40.93-683.64-25.55-489.09,30.35-765.52-65.45-1098.7,8.45C-255.62,977-449.62,1089.34-729.86,1097" transform="translate(747.36 -474.66)"/><path class="cls-179" d="M5129.86,1097c-211.06,8.08-294.37,100.37-585.95,57.14-232.06-39.81-328.51-110.92-610.38-58.27-407.6,85.93-697.52,366.06-1074.28,319-335.6-55.25-610.6-341.45-1074.3-462.36-256.23-61.55-448.87-40-659.22-31.09C648.92,939.18,377,848.39,51.44,904.73-218.65,958.64-422.74,1089.4-729.86,1097" transform="translate(747.36 -474.66)"/><path class="cls-180" d="M5129.86,1097c-180.18,6.41-194.49,49.69-390.65,65.33-439.94,21.9-476.72-246.43-1196.32,65.15-323.21,140.94-527.42,240-854.55,124.08-261.66-99-505-279.84-879-371.88-320.44-73.22-541.24-31.68-854.54-42.93C603.23,921.42,340,855,51.44,905.87c-267,54.06-470.87,184.25-781.3,191.14" transform="translate(747.36 -474.66)"/><path class="cls-181" d="M5129.86,1097c-214,7.06-293.1,97.21-585.95,52.84-234.07-40.76-335.23-113.47-634.81-53.19-406.38,91-686.25,343.7-1074.29,278.13-326.61-66.14-593.8-296.52-1074.28-383.5-264.07-43.83-472.18-29.34-683.63-35.76-303.06-11.21-460.56-51.32-708.06-65.17C-167.46,866.6-270.36,1088-729.86,1097" transform="translate(747.36 -474.66)"/><path class="cls-182" d="M5129.86,1097c-216.54,6.55-293,95.58-585.95,50.68-232.53-40.77-334-112.28-634.81-53.22-402.73,87.89-682.62,329.33-1074.29,262.3-322-65.08-566.51-260.27-1049.86-339.46-255.87-38.73-497.29-33.95-683.64-44.07-303.31-18.54-463.11-62-708-80.15C-159.46,858.56-259.09,1089-729.86,1097" transform="translate(747.36 -474.66)"/><path class="cls-183" d="M5129.86,1097c-218.64,6.11-292.41,93-585.95,46.86-233.14-41.63-332.93-111.25-634.81-53-176.08,37.73-298.6,92.35-488.3,163.29-574.44,210.55-687.64,37.41-1245.21-131.6C1727.22,991.23,1459,1026.8,1052.48,986.91,598.93,939,325.14,825-70.63,940.84-342.79,1024.29-466,1093-729.86,1097" transform="translate(747.36 -474.66)"/><path class="cls-184" d="M5129.86,1097c-220.59,5.66-291.71,90.28-585.95,42.86-232.27-42.24-322-106.25-610.38-57.32-176.51,33.53-304.47,87.29-488.34,153.69-577.83,205.67-668.11,50.19-1245.18-102-500.19-127.07-771.54-61.87-1318.44-157C597.25,926.5,403.06,876,149.1,897.38c-317.85,34.11-503.7,194.45-879,199.63" transform="translate(747.36 -474.66)"/><path class="cls-185" d="M5129.86,1097c-223.32,5.21-291.23,87.55-585.95,38.86-232.43-43.06-321.11-105.34-610.38-57-385.13,72.07-659.12,277.33-1049.89,232.78-318.17-44.88-509.86-179-1049.86-225.14-216.23-17-486.56-19-781.3-65.68C773,974.48,587.76,913,344.43,896.24c-468.63-24.39-623,195.27-1074.29,200.77" transform="translate(747.36 -474.66)"/><path class="cls-186" d="M5129.86,1097c-225.34,4.74-290.68,84.84-585.95,34.85-232.43-43.83-320.33-104.43-610.38-56.58-399.18,73.45-661.22,273.92-1074.28,215.42-335.2-54.78-481.16-161-1074.3-186C837.2,1068.12,863.86,953.81,393.26,902.34-118.17,854.94-243.38,1091.87-729.86,1097" transform="translate(747.36 -474.66)"/><path class="cls-187" d="M5129.86,1097c-227.23,4.26-290,82.16-585.95,30.85-233.53-44.83-319.31-103.56-610.38-56.22-401.94,72.71-662.8,268-1098.72,197.57-236.6-42.18-391-98.68-683.63-127.15-197.34-17.44-336-13.83-512.73-17.52-645.48-17.06-885.72-190.9-1294-224.31-454.12-28.5-613.75,192.6-1074.29,196.78" transform="translate(747.36 -474.66)"/><path class="cls-188" d="M5129.86,1097c-229.55,3.9-289.74,78.71-585.95,25.71-237.32-46.66-327-106.56-634.81-51-387.67,76.67-639.63,251-1074.29,183.4-228.37-38.82-404.14-91.83-708-105.91-202.06-7.72-333.66,1.57-512.72-1.07-590.45-13.92-858.73-208.48-1269.61-244.83C-104.34,872.55-261.09,1093.2-729.86,1097" transform="translate(747.36 -474.66)"/><path class="cls-189" d="M5129.86,1097c-233.06,3.58-289.28,75.2-585.95,20.47-238.34-48-326.84-105.64-634.81-50.23-187.85,37-319.23,88.93-512.73,139.89-544.07,137.64-646.63-50.19-1294-48.52-406.67,3.91-609.1,58.39-1098.7-83.34C565.53,945.39,341.63,829.18-95,960.6c-308.32,95.83-380.62,134.59-634.81,136.41" transform="translate(747.36 -474.66)"/><path class="cls-190" d="M5129.86,1097c-232.87,3.16-289.06,71.69-585.95,15.23-239.35-49.32-326.8-104.72-634.81-49.42-385.73,75.56-616,230.33-1074.29,164.55-703.1-107.3-677.19-46.63-1171.94-31.75C1100.76,1206.66,818.2,976.46,393.26,915-76.82,856.92-238.63,1094-729.86,1097" transform="translate(747.36 -474.66)"/><path class="cls-191" d="M5129.86,1097c-237.7,2.84-288.25,68.27-585.95,10-236.21-49.79-320-100.41-610.38-53-395,70.81-613.44,226.18-1098.72,159.49-648.82-94.15-738.4-14.19-1171.94,5.6-559.34,18.57-852.34-245.84-1294-303.83C-75.12,867-243.35,1094.38-729.86,1097" transform="translate(747.36 -474.66)"/><path class="cls-192" d="M5129.86,1097c-199.79,2-212.49,34-390.65,30.16-174.74-8.42-277.73-49.1-439.47-81.68-304.34-54.75-566.18,58.25-878.94,130.8-371.79,82-511,23.29-805.72-2.33-371.08-28.69-570.88,33.43-879,63.24C1002.34,1300.35,686,824.24,75.86,925.6-215.5,981-363.45,1095.38-729.86,1097" transform="translate(747.36 -474.66)"/><path class="cls-193" d="M5129.86,1097c-243.93,2.19-286.31,61.15-585.95-1.12-236.75-52.28-328.27-102-634.81-46.47-190.82,37.35-316.78,84.31-512.73,125.7-282.25,56.24-427.09,30.38-634.82,6.14-489-53.73-710.38,49.38-1074.26,81.43C1145.63,1302.46,863.64,1017,417.67,930.61-43.76,851.94-220.16,1095-729.86,1097" transform="translate(747.36 -474.66)"/><path class="cls-194" d="M5129.86,1097c-247.2,2-286.78,57.13-585.95-7-236.9-53.57-329-101.18-634.81-45.11-182.06,36-298.31,78.18-488.3,118.85-278.14,56.19-420.27,34.82-634.81,11.67-481.91-48.61-711.49,64-1074.29,106.3-557.11,56.69-834.74-253.11-1294-346.33C-34.12,854.54-219.09,1095.28-729.86,1097" transform="translate(747.36 -474.66)"/><path class="cls-195" d="M5129.86,1097c-249.68,1.66-287.5,53-585.95-12.94-237.56-55-330.05-100.33-634.81-43.76-444.89,88.77-515.22,187.55-1098.68,128.67-490.23-46.14-729.09,85.22-1098.72,133.86-554,64-829.12-264-1294-362.74-443.74-83-633.52,155.45-1147.53,156.91" transform="translate(747.36 -474.66)"/><path class="cls-196" d="M5129.86,1097c-254.85,1.39-287.12,49.09-585.95-18.85-237.57-56.29-330.77-99.54-634.81-42.4-189.68,38.18-296.18,77.75-488.3,115.49C3140.55,1202.67,2997.45,1175,2786,1158c-472.47-32.69-726.16,121.08-1098.7,169.19-530.21,58.48-809.62-280.39-1269.62-382.3C-16.84,859.93-212,1095.19-729.86,1097" transform="translate(747.36 -474.66)"/><path class="cls-197" d="M5129.86,1097c-257,1.12-288.61,44.78-585.95-24.76-237.44-57.54-331.69-98.71-634.81-41-188.51,38.31-299,78.3-488.3,113.81-281.64,49.08-430,17.91-634.81,4.23-452.54-24.2-706.77,136.49-1074.29,195.91C1173.38,1422,906.59,1074.62,442.09,955.23c-417-96.17-679.68,124.69-1049.87,140.44-48.8,1.27-60.72,1.17-122.08,1.34" transform="translate(747.36 -474.66)"/><path class="cls-198" d="M5129.86,1097c-263.44.9-288.82,40.62-585.95-30.92-238.57-59.21-333.34-97.91-634.81-39.38-178.1,36.87-285,74.28-463.91,109-279.45,50.83-423.4,22.88-634.77,9.06-460.89-23.9-723.88,155.34-1098.72,220.51-538.27,82.93-800.93-279.59-1269.61-404.5C30.76,862.29-243.27,1083.54-607.78,1095.93c-48.68,1-61.07,1-122.08,1.08" transform="translate(747.36 -474.66)"/><path class="cls-199" d="M5129.86,1097c-265,.69-290.28,36.14-585.95-37.1-238.89-60.68-334.31-97.25-634.81-37.68-184.57,38.88-302,80.23-488.3,113.09-282.28,45.86-428.36,10.18-634.81,2.52-440.27-8.88-702.27,178.22-1074.29,247.55-538.21,88.89-797-288.55-1269.61-419.05C37,865.83-249.43,1087-607.78,1096.21c-48.54.76-61.23.7-122.08.8" transform="translate(747.36 -474.66)"/><path class="cls-200" d="M5129.86,1097c-323,.84-282.72,36.07-659.21-62.44-194.27-50.5-302.2-72.46-585.94-11.6-186.73,41.92-304,82.49-488.34,111.34-282.15,40.07-425.13-1.51-634.82-2.22-444.26,7.05-715.6,222.74-1098.68,281.45-521.33,67.18-787.82-344-1269.61-453.46C4.9,883.56-203.52,1096.06-729.86,1097" transform="translate(747.36 -474.66)"/><path class="cls-201" d="M5129.86,1097c-338.55.69-275.56,31.59-683.6-75.35-442.43-112.62-633.62,51.15-1074.28,111-282.59,33.9-415.91-12.46-634.82-5-255.06,14.06-447,96.21-683.64,189.3-412.19,160.07-614.41,183.2-976.62-13.31C635.41,1057.86,464.29,874.84-21.81,979.37c-393.81,89-369.61,117.15-708.05,117.64" transform="translate(747.36 -474.66)"/><path class="cls-202" d="M5129.86,1097c-247.08,0-286.74,18.67-512.69-36.44-114.45-29.08-166.43-46.78-268.6-68.5-375.49-72.18-645.07,116.38-1074.29,144.16-276.27,13.42-386.21-37.89-634.77-2.82-254.35,41.29-432.38,138.35-683.66,236.58-440.71,167.77-627.91,105-976.62-107.57C525.91,983.31,381.79,890.39-70.63,994.18-536.35,1104.36-474.89,1097-729.86,1097" transform="translate(747.36 -474.66)"/></g></g></g></svg>